<?xml version="1.0" encoding="UTF-8"?>
<svg version="1.1" xmlns="http://www.w3.org/2000/svg" width="1182" height="591">
<path d="M0 0 C4.34319622 1.66491499 8.14971547 3.81924643 12.0625 6.3125 C13.07969116 6.95868286 13.07969116 6.95868286 14.11743164 7.61791992 C15.6018143 8.56261809 17.08508178 9.5090702 18.56738281 10.45703125 C21.18567265 12.11776908 23.82249521 13.74649221 26.4609375 15.375 C28.28693762 16.5200694 30.11246532 17.6658925 31.9375 18.8125 C33.26116577 19.62037964 33.26116577 19.62037964 34.61157227 20.44458008 C35.42940186 20.96431396 36.24723145 21.48404785 37.08984375 22.01953125 C37.82066162 22.47432861 38.55147949 22.92912598 39.30444336 23.39770508 C41.61642324 25.58251774 41.86708959 26.8290168 42 30 C41.13891602 33.26367187 41.13891602 33.26367187 39.75390625 36.96875 C39.50787659 37.6370433 39.26184692 38.30533661 39.00836182 38.99388123 C38.20487628 41.16718427 37.38388999 43.33340792 36.5625 45.5 C36.00178625 47.00684806 35.44214067 48.51409402 34.88354492 50.02172852 C31.61125592 58.82806449 28.25862882 67.60428482 24.8737793 76.36791992 C21.82630529 84.31699196 19.05742143 92.35941707 16.31958008 100.41967773 C14.10489041 106.91592849 11.76465692 113.35220974 9.33972168 119.77194214 C6.71552532 126.72733937 4.19063128 133.71721347 1.67514038 140.71252441 C0.27917807 144.59432083 -1.1202897 148.47485343 -2.51953125 152.35546875 C-2.80489243 153.14708405 -3.0902536 153.93869934 -3.38426208 154.75430298 C-6.51135799 163.42522434 -9.66028877 172.08818327 -12.8125 180.75 C-13.07701965 181.47694061 -13.34153931 182.20388123 -13.61407471 182.95285034 C-15.07548258 186.96877354 -16.53745769 190.98448978 -18 195 C-17.67 195.33 -17.34 195.66 -17 196 C-16.58678883 195.58489023 -16.17357766 195.16978045 -15.74784493 194.7420916 C8.72160966 170.16084098 33.20403177 145.59258326 57.70346366 121.04120969 C60.6425735 118.09584603 63.58157433 115.15037362 66.52050781 112.20483398 C67.10561907 111.61841118 67.69073032 111.03198837 68.29357222 110.42779518 C77.77778318 100.92180459 87.25312848 91.40702371 96.72524878 81.88898724 C106.43865875 72.12888372 116.16148429 62.37823537 125.89318681 52.63637072 C131.9019375 46.62074611 137.90314835 40.59779469 143.89504054 34.56537712 C147.99994221 30.43412471 152.11392118 26.31206037 156.23527357 22.19721954 C158.61585723 19.81985082 160.9906155 17.43733217 163.35759735 15.04637527 C165.91976977 12.45951804 168.49667959 9.8883279 171.07806396 7.32066345 C171.82903847 6.55512474 172.58001297 5.78958604 173.35374427 5.00084919 C174.044454 4.3200947 174.73516372 3.63934022 175.44680405 2.93795681 C176.04068664 2.34217561 176.63456924 1.74639441 177.24644828 1.13255924 C179 0 179 0 181.10452104 0.25332838 C183.19124384 1.07533523 184.95423494 2.05577133 186.84375 3.265625 C187.58633057 3.73742187 188.32891113 4.20921875 189.09399414 4.6953125 C189.88797607 5.20835937 190.68195801 5.72140625 191.5 6.25 C192.73641235 7.04277344 192.73641235 7.04277344 193.99780273 7.8515625 C195.75373607 8.97885285 197.50816917 10.10848287 199.26123047 11.24023438 C202.04019339 13.02582581 204.83298882 14.78797289 207.62890625 16.546875 C209.44043837 17.69739061 211.25164558 18.84841801 213.0625 20 C213.92488281 20.53915039 214.78726562 21.07830078 215.67578125 21.63378906 C216.475 22.14651367 217.27421875 22.65923828 218.09765625 23.1875 C218.80414307 23.63480469 219.51062988 24.08210938 220.23852539 24.54296875 C222.23103188 26.19110163 222.91965611 27.68256131 224 30 C223.31032166 30.68875654 222.62064333 31.37751308 221.91006565 32.08714104 C205.1496348 48.82539886 188.39206754 65.56651933 171.63752079 82.31066704 C163.53517465 90.40785097 155.43189139 98.50409295 147.32641602 106.59814453 C140.26391244 113.65069899 133.20315247 120.70499355 126.14450449 127.76140702 C122.40494893 131.49965586 118.66451003 135.23701134 114.92198372 138.97228622 C111.40280201 142.48470414 107.88594812 145.99943566 104.37090111 149.51599121 C103.07731546 150.8093007 101.78286616 152.10174699 100.48751068 153.39328384 C98.7251726 155.15067911 96.96590919 156.91109475 95.20741272 158.67233276 C94.68893849 159.18789415 94.17046426 159.70345554 93.63627869 160.23464 C90.98547338 162.86648128 90.98547338 162.86648128 89 166 C89.57105469 166.02578125 90.14210938 166.0515625 90.73046875 166.078125 C106.94173129 167.21214019 122.90450138 174.18010952 135 185 C135.73605469 185.64324219 136.47210938 186.28648437 137.23046875 186.94921875 C148.13216239 197.1003655 154.8471495 209.83145125 159 224 C159 225.32 159 226.64 159 228 C163.84821898 223.9703115 168.13008248 219.80676868 172.1953125 214.9921875 C174.71403579 212.21177868 177.5154395 209.83853478 180.3984375 207.4453125 C182.11587815 206.07190983 182.11587815 206.07190983 183 204 C183.66 204 184.32 204 185 204 C185 203.34 185 202.68 185 202 C186.57421875 200.44921875 186.57421875 200.44921875 188.6875 198.6875 C191.96699445 195.93914778 194.9944389 193.04636057 198 190 C198.95188452 189.05733948 199.90504021 188.11596107 200.859375 187.17578125 C201.82292902 186.22136663 202.78647062 185.26693948 203.75 184.3125 C204.24371094 183.82716797 204.73742187 183.34183594 205.24609375 182.84179688 C207.96615276 180.18159783 207.96615276 180.18159783 210 177 C210.66 177 211.32 177 212 177 C212.33 176.01 212.66 175.02 213 174 C214.671875 172.3515625 214.671875 172.3515625 216.75 170.625 C220.01076945 167.899395 223.01698121 165.02821604 226 162 C237 151 237 151 239.64453125 148.39453125 C242.16312737 145.83416737 244.41334046 143.1454969 246.66796875 140.35546875 C247.10753906 139.90816406 247.54710937 139.46085938 248 139 C248.66 139 249.32 139 250 139 C250.25136719 138.40960938 250.50273438 137.81921875 250.76171875 137.2109375 C252.15486406 134.72349193 253.60964761 133.41929277 255.8125 131.625 C258.44103394 129.41626821 260.74303478 127.25450385 262.875 124.5625 C263.57625 123.716875 264.2775 122.87125 265 122 C265.66 122 266.32 122 267 122 C267 121.34 267 120.68 267 120 C268.65002828 118.64613064 270.3174387 117.31321858 272 116 C272.33 115.34 272.66 114.68 273 114 C273.66 114 274.32 114 275 114 C275.34224609 113.14921875 275.34224609 113.14921875 275.69140625 112.28125 C277.35097153 109.3881571 279.40946482 107.66794794 281.9375 105.5 C284.45781591 103.33230561 286.71001009 101.39111802 288.69140625 98.71875 C289.33916016 97.86796875 289.33916016 97.86796875 290 97 C290.66 97 291.32 97 292 97 C292 96.34 292 95.68 292 95 C293.50390625 93.5546875 293.50390625 93.5546875 295.5625 91.875 C299.24920575 88.76250683 302.32752835 85.44487395 305.359375 81.69921875 C307.11113391 79.88489702 308.69580345 78.98679722 311 78 C311 77.34 311 76.68 311 76 C311.66 76 312.32 76 313 76 C313.66 74.68 314.32 73.36 315 72 C315.66 72 316.32 72 317 72 C317 71.34 317 70.68 317 70 C317.66 70 318.32 70 319 70 C319.26876953 69.40670898 319.53753906 68.81341797 319.81445312 68.20214844 C321.00290732 65.99459967 322.20742389 64.53457118 323.96875 62.765625 C324.82533203 61.90517578 324.82533203 61.90517578 325.69921875 61.02734375 C326.29347656 60.44082031 326.88773438 59.85429687 327.5 59.25 C328.09425781 58.64800781 328.68851563 58.04601562 329.30078125 57.42578125 C330.15736328 56.57306641 330.15736328 56.57306641 331.03125 55.703125 C331.55267578 55.18395508 332.07410156 54.66478516 332.61132812 54.12988281 C334 53 334 53 336 53 C336 52.34 336 51.68 336 51 C336.66 51 337.32 51 338 51 C338.37125 50.14148438 338.37125 50.14148438 338.75 49.265625 C340.19316199 46.64989389 341.88216222 44.85226544 344 42.75 C344.70125 42.04359375 345.4025 41.3371875 346.125 40.609375 C348 39 348 39 350 39 C350.268125 38.360625 350.53625 37.72125 350.8125 37.0625 C352 35 352 35 355 34 C355 33.34 355 32.68 355 32 C355.66 32 356.32 32 357 32 C357.66 30.68 358.32 29.36 359 28 C359.66 28 360.32 28 361 28 C361 27.34 361 26.68 361 26 C361.66 26 362.32 26 363 26 C363.4031543 25.11006348 363.4031543 25.11006348 363.81445312 24.20214844 C365.00290732 21.99459967 366.20742389 20.53457118 367.96875 18.765625 C368.82533203 17.90517578 368.82533203 17.90517578 369.69921875 17.02734375 C370.29347656 16.44082031 370.88773438 15.85429687 371.5 15.25 C372.39138672 14.34701172 372.39138672 14.34701172 373.30078125 13.42578125 C374.15736328 12.57306641 374.15736328 12.57306641 375.03125 11.703125 C375.55267578 11.18395508 376.07410156 10.66478516 376.61132812 10.12988281 C378 9 378 9 380 9 C380 8.34 380 7.68 380 7 C380.66 7 381.32 7 382 7 C382.2475 6.401875 382.495 5.80375 382.75 5.1875 C384.22877798 2.59963854 385.34261755 1.36665383 388 0 C392.67105534 1.35747276 396.54647897 4.15499758 400.5625 6.8125 C402.06247969 7.79430186 403.56248066 8.77607121 405.0625 9.7578125 C405.85527344 10.27891602 406.64804687 10.80001953 407.46484375 11.33691406 C411.98681141 14.30336665 416.52629399 17.24288818 421.0625 20.1875 C422.78267824 21.30579555 424.50274132 22.42426828 426.22265625 23.54296875 C426.95234619 24.01758545 427.68203613 24.49220215 428.43383789 24.98120117 C428.95067139 25.31740479 429.46750488 25.6536084 430 26 C429.373331 30.819383 427.98240562 35.11314713 426.25 39.625 C425.61308865 41.31844902 424.9778205 43.0125165 424.34375 44.70703125 C423.97894531 45.6810791 423.61414063 46.65512695 423.23828125 47.65869141 C420.98069212 53.75044314 418.78971627 59.86632386 416.58990479 65.97912598 C410.89879672 81.78982733 405.14211898 97.57534043 399.34277344 113.34667969 C397.28844667 118.93594256 395.23915459 124.52705031 393.18978882 130.11813354 C390.22341104 138.21093918 387.25607931 146.30339294 384.28515625 154.39453125 C378.93017295 168.98207866 373.59478654 183.57652784 368.29394531 198.18383789 C367.80015046 199.54444094 367.30633563 200.90503675 366.8125 202.265625 C366.57311707 202.92517685 366.33373413 203.5847287 366.08709717 204.26426697 C364.56823017 208.44557751 363.03780398 212.62248129 361.5 216.796875 C361.12641357 217.81394531 360.75282715 218.83101562 360.36791992 219.87890625 C359.68879008 221.72636564 359.00688348 223.5728079 358.3215332 225.41796875 C354.66769099 235.37665562 352.4904704 247.83555004 356.5 258.0625 C359.88105701 264.28888315 365.75072391 269.44029374 372.55859375 271.55859375 C386.09232256 274.00549192 398.18217703 271.12644863 409.50317383 263.52880859 C419.59259181 256.39773703 427.50265759 247.78535971 435 238 C435.66 238.33 436.32 238.66 437 239 C437.54321289 240.70800781 437.54321289 240.70800781 437.97265625 242.953125 C438.14531006 243.79004883 438.31796387 244.62697266 438.49584961 245.48925781 C438.68284424 246.40030273 438.86983887 247.31134766 439.0625 248.25 C440.83545645 256.2528038 443.19528812 263.71996461 446.4375 271.25 C446.79658447 272.09336914 447.15566895 272.93673828 447.52563477 273.80566406 C450.11691615 279.62464138 453.32054082 284.80712055 457 290 C450.2816268 304.24569716 429.26511317 314.6254923 415 320 C391.67116207 328.25766803 368.04486813 327.88619126 345.4921875 317.36328125 C324.42976275 306.48998773 311.07500519 289.19178804 303.76171875 266.7890625 C299.32030452 250.52665348 300.46315206 230.80512843 306 215 C306.3815625 213.88608887 306.763125 212.77217773 307.15625 211.62451172 C310.33033179 202.37720347 313.64323742 193.18232903 317 184 C317.3290332 183.09878418 317.65806641 182.19756836 317.99707031 181.26904297 C319.33591285 177.60979506 320.6850793 173.95445038 322.0390625 170.30078125 C324.53595438 163.55807923 327.0195194 156.81054851 329.48977661 150.05804443 C330.03226166 148.57738363 330.57623459 147.097267 331.12179565 145.61773682 C331.89366769 143.52390045 332.6602516 141.42819343 333.42578125 139.33203125 C334.09734253 137.50248901 334.09734253 137.50248901 334.7824707 135.63598633 C335.66492564 133.00065418 336.41753839 130.46195998 337.07609558 127.77275085 C337.38098404 126.52774307 337.6858725 125.28273529 338 124 C337.37757887 124.62583861 337.37757887 124.62583861 336.74258357 125.26432043 C312.16738498 149.97368955 287.57661439 174.66745532 262.9654194 199.34097258 C260.01255798 202.30133853 257.05982744 205.26183499 254.10717773 208.22241211 C253.51933818 208.81182553 252.93149862 209.40123895 252.32584574 210.00851338 C242.79887428 219.56161666 233.28255127 229.12526029 223.7700986 238.69281817 C214.01446629 248.50449315 204.2475306 258.30480802 194.46993464 268.09459633 C188.43344531 274.13933221 182.40602391 280.19283053 176.38978048 286.25771832 C172.2674212 290.41171136 168.13416772 294.55465151 163.99205802 298.68895025 C161.59996292 301.07718946 159.21308777 303.47011357 156.83898354 305.87624931 C154.26626527 308.47861599 151.67593812 311.06204364 149.08015442 313.64137268 C148.32820181 314.41080234 147.5762492 315.18023199 146.80151016 315.9729777 C146.10532598 316.65721558 145.40914181 317.34145346 144.69186115 318.04642582 C144.09532051 318.64524478 143.49877988 319.24406374 142.88416225 319.86102873 C141 321 141 321 138.3871786 320.74091858 C136.10504527 320.03260334 134.33995765 319.23867508 132.3125 317.98828125 C131.62341553 317.56683838 130.93433105 317.14539551 130.22436523 316.71118164 C129.49032471 316.2496167 128.75628418 315.78805176 128 315.3125 C127.23051025 314.83353271 126.46102051 314.35456543 125.66821289 313.86108398 C123.10375752 312.25359519 120.55089135 310.62892168 118 309 C117.05108887 308.39736328 116.10217773 307.79472656 115.12451172 307.17382812 C112.21836096 305.31906413 109.32599015 303.44462789 106.4375 301.5625 C105.51517578 300.97186768 104.59285156 300.38123535 103.64257812 299.77270508 C102.78986328 299.20962646 101.93714844 298.64654785 101.05859375 298.06640625 C100.29861084 297.57084229 99.53862793 297.07527832 98.75561523 296.56469727 C96.68376614 294.71815563 96.20672452 293.75089842 96 291 C97.14005031 288.4370962 98.33310988 286.06908905 99.6875 283.625 C107.65520298 268.52602102 111.47609022 252.46905393 106.91015625 235.734375 C104.83973041 229.51421153 101.23849508 225.80047682 96 222 C82.37820341 215.30859115 65.16714754 216.53919342 51.02099609 221.25927734 C23.82328545 231.22760956 3.1466992 250.55155517 -16.78327751 270.86093903 C-20.2474478 274.38698932 -23.7279057 277.89693593 -27.20507812 281.41015625 C-31.60005212 285.85319015 -35.99010773 290.30083618 -40.36547852 294.76318359 C-43.93253606 298.40030261 -47.51391031 302.02275518 -51.10540962 305.63573456 C-52.46602389 307.00994631 -53.82120465 308.38955994 -55.17078972 309.7746048 C-57.04684193 311.69868901 -58.94056321 313.60351972 -60.83959961 315.50488281 C-61.66800102 316.36799828 -61.66800102 316.36799828 -62.51313782 317.24855042 C-64.0877533 318.80255127 -64.0877533 318.80255127 -67 321 C-70.46329401 320.87574325 -72.80962529 319.76150961 -75.72265625 317.953125 C-76.41697754 317.52620361 -77.11129883 317.09928223 -77.82666016 316.65942383 C-78.5644873 316.19431396 -79.30231445 315.7292041 -80.0625 315.25 C-80.83384277 314.77135498 -81.60518555 314.29270996 -82.39990234 313.79956055 C-91.68809044 308.00489847 -100.85155524 302.01204094 -110 296 C-109.35865021 290.90126914 -107.83117764 286.50852561 -106 281.75 C-103.07076773 273.98193381 -100.31147222 266.16764438 -97.625 258.3125 C-94.42292809 248.98696556 -91.07177641 239.73320892 -87.57983398 230.51269531 C-84.38074148 222.05379972 -81.27144526 213.56384603 -78.1875 205.0625 C-77.9356192 204.36821899 -77.6837384 203.67393799 -77.42422485 202.95861816 C-76.39443859 200.11956404 -75.36494228 197.28040516 -74.33601379 194.44104004 C-72.53502688 189.47187565 -70.7281905 184.50486958 -68.91796875 179.5390625 C-62.54407636 162.04993577 -56.23486548 144.53922057 -50 127 C-50.33 126.67 -50.66 126.34 -51 126 C-51.92748047 126.93271729 -52.85496094 127.86543457 -53.81054688 128.82641602 C-57.28190149 132.31599393 -60.75666551 135.80216036 -64.23242188 139.28735352 C-65.73073707 140.79066955 -67.22815007 142.29488536 -68.72460938 143.80004883 C-70.88690225 145.9745947 -73.05251613 148.1457871 -75.21875 150.31640625 C-75.87742065 150.98023819 -76.53609131 151.64407013 -77.21472168 152.32801819 C-81.09729607 156.21105075 -85.08877378 159.9049543 -89.25500488 163.48252869 C-92.40499259 166.22180053 -95.27924467 169.05556198 -97.8125 172.375 C-100.30979778 175.37175734 -103.07084986 177.76680433 -106.04296875 180.28125 C-107.74669463 181.7775362 -109.23882837 183.31572203 -110.75 185 C-113 187 -113 187 -115.0625 187.125 C-117.73646572 185.57237474 -119.12423595 183.4441774 -121 181 C-121.763125 180.401875 -122.52625 179.80375 -123.3125 179.1875 C-126.36538435 176.70259414 -128.75219582 173.93655684 -131.3046875 170.953125 C-133.4231094 168.51254677 -135.68516033 166.25392284 -138 164 C-142 160 -146 156 -150 152 C-148.35869857 147.80801455 -145.27688651 145.00432746 -142.14083862 141.90032959 C-141.53476402 141.29254614 -140.92868942 140.68476269 -140.30424893 140.05856156 C-138.26989464 138.02091007 -136.22846891 135.99049438 -134.18701172 133.95996094 C-132.72817766 132.50169095 -131.26978371 131.04298058 -129.8117981 129.5838623 C-125.84956716 125.62105666 -121.88119231 121.66445525 -117.91170645 117.70891857 C-113.76546149 113.57516133 -109.62486543 109.43575387 -105.4836731 105.29693604 C-97.6395609 97.45904436 -89.79036358 89.62626564 -81.93933785 81.79529977 C-73.00203002 72.8803331 -64.07038872 63.95969859 -55.13922477 55.03857756 C-36.76579251 36.68606027 -18.38523653 18.34069142 0 0 Z " fill="#00276F" transform="translate(263,133)"/>
<path d="M0 0 C5.85535264 2.76265072 11.33521903 5.74353772 16.671875 9.41015625 C19.1450715 11.09906728 21.65709623 12.71065083 24.1875 14.3125 C28.69864296 17.17041159 33.19652829 20.0480483 37.6875 22.9375 C38.31229248 23.3394458 38.93708496 23.7413916 39.58081055 24.15551758 C41.05400697 25.1034713 42.52702368 26.0517043 44 27 C43.39933259 33.74729702 41.16892311 39.7669119 38.90625 46.12109375 C38.27810394 47.90939606 38.27810394 47.90939606 37.63726807 49.73382568 C36.50154078 52.96662626 35.35783037 56.19654856 34.21250916 59.42596054 C33.01634103 62.80295487 31.82745448 66.18251122 30.63769531 69.56176758 C28.46072522 75.74133468 26.27716182 81.91854718 24.09031296 88.09462452 C22.15558631 93.55894034 20.22541084 99.02485498 18.29632568 104.49116516 C12.33275327 121.38782244 6.36422268 138.28218236 0.25 155.125 C-3.30262309 164.92640192 -6.71475135 174.77555036 -10.10168457 184.63519287 C-10.69536361 186.3632676 -11.28999192 188.09101654 -11.88562012 189.81842041 C-12.71886235 192.23715544 -13.54761995 194.65737932 -14.375 197.078125 C-14.62558167 197.80403839 -14.87616333 198.52995178 -15.13433838 199.27786255 C-19.63320347 212.50616971 -20.43338523 228.40947478 -14.47265625 241.27734375 C-13.98667969 242.17582031 -13.50070312 243.07429687 -13 244 C-12.56558594 244.82628906 -12.13117187 245.65257812 -11.68359375 246.50390625 C-5.49350368 256.92653655 5.01705157 263.44568359 16.4375 266.75 C42.1060202 272.15232809 68.18593995 266.55658615 90.1875 252.8125 C108.29027057 240.92186494 121.21002058 224.08498551 131 205 C131.40508789 204.22857666 131.81017578 203.45715332 132.22753906 202.66235352 C135.26601372 196.76967671 137.68394445 190.81468039 139.875 184.5625 C140.57511685 182.60141823 141.27564396 180.64048288 141.9765625 178.6796875 C142.31977539 177.71385742 142.66298828 176.74802734 143.01660156 175.75292969 C144.39774644 171.88654695 145.82212115 168.036809 147.25 164.1875 C152.55892386 149.81325148 157.77528167 135.40501231 163 121 C163.31878113 120.12120178 163.63756226 119.24240356 163.96600342 118.3369751 C171.98721907 96.22211527 179.97980328 74.09769285 187.875 51.9375 C192.32758841 39.44081073 196.80968791 26.95600103 201.375 14.5 C201.60878357 13.86117889 201.84256714 13.22235779 202.08343506 12.56417847 C205.82270342 2.35459317 205.82270342 2.35459317 207 0 C209.95112799 0.6141217 212.16965712 1.5371895 214.73046875 3.1171875 C215.44299805 3.55409912 216.15552734 3.99101074 216.88964844 4.44116211 C218.02708496 5.15091187 218.02708496 5.15091187 219.1875 5.875 C219.97543945 6.36170166 220.76337891 6.84840332 221.57519531 7.34985352 C231.83518754 13.71484869 241.96610374 20.28476819 252 27 C250.6017673 34.07043771 248.48586347 40.62546782 245.98828125 47.37890625 C245.59248367 48.46345596 245.1966861 49.54800568 244.78889465 50.66542053 C243.95196034 52.95743108 243.11263621 55.24857024 242.27105713 57.53887939 C240.63063689 62.00578506 239.00473252 66.4779103 237.37841797 70.94996643 C236.15676189 74.30815004 234.93292926 77.66553311 233.70849609 81.02270508 C224.18370464 107.12884352 224.18370464 107.12884352 214.875 133.3125 C209.95578268 147.33409064 204.96367587 161.32887872 199.9375 175.3125 C199.35545807 176.93241348 199.35545807 176.93241348 198.76165771 178.58505249 C193.71281368 192.62371808 188.59605919 206.63002461 183.17163086 220.52856445 C178.82992369 231.73311218 174.77899922 244.25536858 179.6875 256 C183.7078267 263.55036966 188.61326877 267.94908846 196.8125 270.58203125 C210.53508345 273.20402487 221.83449196 269.53157414 233.375 262.0625 C235.26523115 260.72967647 237.1421532 259.37760575 239 258 C239.98419922 257.27683594 239.98419922 257.27683594 240.98828125 256.5390625 C247.35336174 251.47626285 252.51082112 244.73376832 257 238 C257.99 238 258.98 238 260 238 C260.4021875 239.83498047 260.4021875 239.83498047 260.8125 241.70703125 C264.31195274 256.99934901 269.10284566 271.92552577 277.87109375 285.08984375 C279.09380187 287.15871666 279.81896752 288.59417362 280 291 C270.29760036 305.96194961 245.64914972 317.68106734 229 322 C228.3824585 322.17297607 227.76491699 322.34595215 227.12866211 322.52416992 C205.60333254 328.03672427 181.52697823 324.53761439 162.47265625 313.30078125 C151.52761565 306.35787275 142.98065433 296.04582365 135 286 C134.23558594 286.61746094 133.47117187 287.23492187 132.68359375 287.87109375 C100.66790301 313.35183194 60.97118729 325.83512207 20.02734375 321.53125 C-1.21053132 318.84233911 -20.75598848 311.05845361 -37 297 C-37.84433594 296.34 -38.68867187 295.68 -39.55859375 295 C-57.05337308 280.66827677 -68.70582613 256.16966098 -71 234 C-71.19019465 229.49935063 -71.23079204 225.0042669 -71.25 220.5 C-71.2809375 218.73269531 -71.2809375 218.73269531 -71.3125 216.9296875 C-71.37429755 202.74714983 -67.95848041 189.88774709 -63.375 176.5625 C-62.89748946 175.15296016 -62.42037242 173.74328696 -61.94360352 172.33349609 C-55.95778511 154.71363191 -49.67917632 137.19320217 -43.43713379 119.66297913 C-39.10404778 107.4909689 -34.800207 95.30865796 -30.5 83.125 C-30.1154364 82.03580261 -29.7308728 80.94660522 -29.33465576 79.82440186 C-25.21134945 68.14407225 -21.09819227 56.460941 -17.0625 44.75 C-13.99878659 35.87074382 -10.92514603 26.99504569 -7.8107605 18.13342285 C-7.31662445 16.72455369 -6.82449819 15.31497782 -6.33450317 13.90466309 C-5.65681796 11.95532029 -4.9719096 10.00866336 -4.28515625 8.0625 C-3.69553101 6.37833984 -3.69553101 6.37833984 -3.09399414 4.66015625 C-2 2 -2 2 0 0 Z " fill="#00276F" transform="translate(788,134)"/>
<path d="M0 0 C2.08560602 0.82306476 3.84927716 1.80376437 5.73825288 3.0132727 C6.85212373 3.72096802 6.85212373 3.72096802 7.98849702 4.4429602 C8.78247895 4.95600708 9.57646089 5.46905395 10.39450288 5.9976477 C11.63091523 6.79042114 11.63091523 6.79042114 12.89230561 7.5992102 C14.64823895 8.72650055 16.40267205 9.85613057 18.15573335 10.98788208 C20.93469627 12.77347351 23.7274917 14.5356206 26.52340913 16.2945227 C28.33494125 17.44503832 30.14614845 18.59606572 31.95700288 19.7476477 C32.81938569 20.28679809 33.6817685 20.82594848 34.57028413 21.38143677 C35.76911225 22.15052368 35.76911225 22.15052368 36.99215913 22.9351477 C37.69864594 23.38245239 38.40513276 23.82975708 39.13302827 24.29061645 C41.12553475 25.93874933 41.81415899 27.43020901 42.89450288 29.7476477 C42.20482454 30.43640424 41.51514621 31.12516079 40.80456853 31.83478874 C24.04413768 48.57304657 7.28657041 65.31416703 -9.46797633 82.05831474 C-17.57032247 90.15549867 -25.67360573 98.25174065 -33.77908111 106.34579223 C-40.84158468 113.39834669 -47.90234465 120.45264126 -54.96099263 127.50905472 C-58.70054819 131.24730356 -62.44098709 134.98465904 -66.1835134 138.71993393 C-69.70269511 142.23235184 -73.219549 145.74708336 -76.73459601 149.26363891 C-78.02818167 150.5569484 -79.32263096 151.8493947 -80.61798644 153.14093155 C-82.38032452 154.89832681 -84.13958793 156.65874245 -85.8980844 158.41998047 C-86.41655863 158.93554186 -86.93503286 159.45110324 -87.46921843 159.9822877 C-90.12002374 162.61412898 -90.12002374 162.61412898 -92.10549712 165.7476477 C-91.24891509 165.78631958 -91.24891509 165.78631958 -90.37502837 165.8257727 C-69.43780522 167.29037973 -50.79278107 178.19141736 -37.10549712 193.7476477 C-36.06499277 195.38933235 -35.05244983 197.05027964 -34.10549712 198.7476477 C-37.10549712 198.7476477 -37.10549712 198.7476477 -39.12112212 196.7710852 C-39.85846587 195.89710083 -40.59580962 195.02311645 -41.35549712 194.1226477 C-56.03360682 177.37122555 -74.67247052 171.21185568 -96.10549712 167.7476477 C-95.64874537 163.42229356 -92.84865409 161.08600585 -89.8980844 158.19292969 C-89.07600874 157.36912581 -89.07600874 157.36912581 -88.23732549 156.52867943 C-86.39565316 154.68674858 -84.54346809 152.85576426 -82.69119048 151.02450317 C-81.37020512 149.70763728 -80.04989335 148.39009538 -78.7302072 147.07192749 C-75.88562605 144.2334453 -73.03639639 141.39974222 -70.1835134 138.56960434 C-65.67681743 134.09863508 -61.18099135 129.61684308 -56.68668914 125.13342041 C-47.95977384 116.4306519 -39.22161999 107.7392167 -30.48244262 99.04876465 C-19.35331727 87.98044621 -8.22978286 76.90652422 2.88475722 65.82355934 C7.35825795 61.36348715 11.83695631 56.90871887 16.31974065 52.45797843 C19.10121782 49.69454176 21.87864304 46.92705998 24.65500283 44.15848297 C25.94812402 42.87072598 27.24298357 41.58471202 28.53965592 40.30053085 C30.30238024 38.55435231 32.05895059 36.80221179 33.8140738 35.04839844 C34.33477875 34.53556553 34.8554837 34.02273262 35.39196759 33.49435931 C38.10451126 31.08070298 38.10451126 31.08070298 38.89450288 27.7476477 C36.7133812 26.06518427 36.7133812 26.06518427 33.88278413 24.3335852 C32.28889863 23.32026123 32.28889863 23.32026123 30.66281343 22.28646606 C29.51117158 21.56472235 28.35922949 20.8434575 27.20700288 20.1226477 C26.05156653 19.39460101 24.89637404 18.66616716 23.74142671 17.93734497 C21.47865284 16.51085413 19.21320603 15.08892046 16.94626069 13.66903442 C14.44261387 12.09273839 11.95598223 10.49637512 9.48044038 8.87655395 C8.34768706 8.14599343 7.21488187 7.41551332 6.08200288 6.6851477 C5.14743257 6.07542114 4.21286225 5.46569458 3.24997163 4.83749145 C1.03117564 3.56077922 1.03117564 3.56077922 -1.02771091 3.97760093 C-3.54166937 4.90929717 -4.81303288 6.0824647 -6.70554519 7.97855228 C-7.4067051 8.67373905 -8.10786501 9.36892582 -8.8302722 10.08517885 C-9.59291954 10.85656472 -10.35556689 11.62795059 -11.14132476 12.42271179 C-11.95736938 13.23619313 -12.773414 14.04967448 -13.61418724 14.88780677 C-15.87954623 17.14907303 -18.13803185 19.4169561 -20.39381456 21.68776828 C-22.82733794 24.13422986 -25.26950715 26.57203334 -27.71064544 29.01089233 C-31.93948608 33.23815884 -36.16279303 37.47088967 -40.382406 41.70736641 C-46.48328368 47.83261048 -52.59241453 53.9495678 -58.70360067 60.06452506 C-68.6180197 69.98551228 -78.52571876 79.91318248 -88.42922759 89.84505981 C-98.05038951 99.49375278 -107.6746928 109.13929433 -117.30325103 118.78060669 C-117.89661225 119.37475608 -118.48997348 119.96890548 -119.10131535 120.5810594 C-122.07801138 123.5616705 -125.05476941 126.54221967 -128.03155828 129.52273804 C-152.73249253 154.25477965 -177.42253609 178.99766901 -202.10549712 203.7476477 C-202.76549712 203.4176477 -203.42549712 203.0876477 -204.10549712 202.7476477 C-203.51444947 197.90105693 -202.12605555 194.14016603 -200.10549712 189.7476477 C-199.77549712 189.7476477 -199.44549712 189.7476477 -199.10549712 189.7476477 C-199.10549712 192.0576477 -199.10549712 194.3676477 -199.10549712 196.7476477 C-198.69016998 196.33042196 -198.27484284 195.91319622 -197.84693003 195.48332727 C-173.2522192 170.77682062 -148.64453919 146.0833049 -124.01985119 121.40667513 C-121.06572008 118.44629019 -118.11169798 115.4857965 -115.15774322 112.52523559 C-114.27559041 111.64111546 -114.27559041 111.64111546 -113.37561634 110.73913432 C-103.84290655 101.18464486 -94.31906223 91.62136493 -84.79844293 82.05482953 C-75.03531234 72.24500553 -65.26276619 62.44463646 -55.48134327 52.65305138 C-49.44188336 46.60671753 -43.40996281 40.55305626 -37.38736114 34.48992939 C-33.26143467 30.33765234 -29.12643079 26.19456288 -24.98405376 22.05869745 C-22.59136058 19.66921918 -20.20299144 17.27578821 -17.82527518 14.87139839 C-15.24996618 12.27140491 -12.65991782 9.68707577 -10.06539702 7.10627502 C-9.31053158 6.33684537 -8.55566613 5.56741571 -7.77792597 4.77467 C-6.73663628 3.74831318 -6.73663628 3.74831318 -5.67431045 2.70122188 C-5.07739009 2.10240292 -4.48046973 1.50358396 -3.86546087 0.88661897 C-2.10549712 -0.2523523 -2.10549712 -0.2523523 0 0 Z " fill="#000A5E" transform="translate(444.1054971218109,133.25235229730606)"/>
<path d="M0 0 C4.34347515 1.66502191 8.14865169 3.82070942 12.0625 6.3125 C12.73990234 6.73966309 13.41730469 7.16682617 14.11523438 7.60693359 C23.13379756 13.31557856 32.06747602 19.15801904 41 25 C40.67 26.32 40.34 27.64 40 29 C39.57468994 28.55269531 39.14937988 28.10539062 38.71118164 27.64453125 C37.08477917 26.08147702 35.51258576 24.90676994 33.62109375 23.6875 C32.95553467 23.25655029 32.28997559 22.82560059 31.60424805 22.3815918 C30.88922119 21.9256665 30.17419434 21.46974121 29.4375 21 C28.32532104 20.29000854 28.32532104 20.29000854 27.19067383 19.56567383 C25.61351479 18.56196711 24.03494066 17.56048109 22.45507812 16.56103516 C19.96449194 14.97742258 17.49020638 13.37019665 15.015625 11.76171875 C13.40698054 10.73583275 11.7976256 9.7110598 10.1875 8.6875 C9.05042603 7.94016602 9.05042603 7.94016602 7.89038086 7.17773438 C7.17760986 6.73107422 6.46483887 6.28441406 5.73046875 5.82421875 C5.10551514 5.42291748 4.48056152 5.02161621 3.83666992 4.6081543 C1.98956906 3.78203954 1.98956906 3.78203954 0.15830994 4.70109558 C-2.41206285 6.24798582 -4.2619959 8.03721037 -6.36962891 10.17431641 C-7.65083115 11.46542831 -7.65083115 11.46542831 -8.95791626 12.78262329 C-9.87156952 13.71287323 -10.78522278 14.64312317 -11.7265625 15.6015625 C-12.67954051 16.56335406 -13.63311185 17.52455806 -14.58724976 18.48519897 C-17.60547739 21.52623903 -20.61577253 24.57505712 -23.625 27.625 C-27.11912031 31.1662763 -30.61639324 34.70431372 -34.12217331 38.23405075 C-35.52553639 39.65041112 -36.9227908 41.07281559 -38.31997681 42.49526978 C-39.59172256 43.7769252 -39.59172256 43.7769252 -40.88916016 45.08447266 C-42.01023666 46.22125961 -42.01023666 46.22125961 -43.15396118 47.38101196 C-45 49 -45 49 -47 49 C-47.33 49.99 -47.66 50.98 -48 52 C-49.4375 53.6875 -49.4375 53.6875 -51 55 C-51.66 55 -52.32 55 -53 55 C-53.268125 55.598125 -53.53625 56.19625 -53.8125 56.8125 C-54.99917406 58.99847854 -56.09599113 60.41332594 -58 62 C-58.66 62 -59.32 62 -60 62 C-60.226875 62.556875 -60.45375 63.11375 -60.6875 63.6875 C-62.3703574 66.65253447 -64.53621374 68.65353689 -67 71 C-67.721875 71.763125 -68.44375 72.52625 -69.1875 73.3125 C-71 75 -71 75 -73 75 C-73.495 76.485 -73.495 76.485 -74 78 C-75.9375 80.1875 -75.9375 80.1875 -78 82 C-78.66 82 -79.32 82 -80 82 C-80.20625 82.556875 -80.4125 83.11375 -80.625 83.6875 C-82.15508893 86.26083139 -84.00795452 87.73050355 -86.34375 89.5625 C-88.77388341 91.6716724 -90.70799607 94.12916709 -92.703125 96.64453125 C-93.13109375 97.09183594 -93.5590625 97.53914063 -94 98 C-94.66 98 -95.32 98 -96 98 C-96.495 99.485 -96.495 99.485 -97 101 C-97.66 101 -98.32 101 -99 101 C-99.495 102.485 -99.495 102.485 -100 104 C-100.66 104 -101.32 104 -102 104 C-102.226875 104.5775 -102.45375 105.155 -102.6875 105.75 C-104.33199647 108.56913681 -106.4355467 110.01254869 -109 112 C-109.66 112.99 -110.32 113.98 -111 115 C-111.66 115 -112.32 115 -113 115 C-113 115.66 -113 116.32 -113 117 C-113.66 117 -114.32 117 -115 117 C-115.268125 117.598125 -115.53625 118.19625 -115.8125 118.8125 C-116.99917406 120.99847854 -118.09599113 122.41332594 -120 124 C-120.66 124 -121.32 124 -122 124 C-122.66 125.32 -123.32 126.64 -124 128 C-124.66 128 -125.32 128 -126 128 C-126.2475 128.61875 -126.495 129.2375 -126.75 129.875 C-128.23740369 132.40358627 -129.43678009 132.71839004 -132 134 C-133.26804566 136.0335948 -133.26804566 136.0335948 -134 138 C-134.66 138 -135.32 138 -136 138 C-136 138.66 -136 139.32 -136 140 C-136.66 140 -137.32 140 -138 140 C-138.20625 140.53625 -138.4125 141.0725 -138.625 141.625 C-140.28124759 144.48579129 -142.36628484 146.29225485 -144.85546875 148.4375 C-146.23050198 149.93721616 -146.23050198 149.93721616 -145.75074768 151.89715576 C-144.89557154 154.29250412 -143.93506262 155.42813901 -142.13256836 157.20800781 C-141.23174782 158.10848846 -141.23174782 158.10848846 -140.31272888 159.02716064 C-139.66167679 159.66272888 -139.01062469 160.29829712 -138.33984375 160.953125 C-137.67537735 161.61334656 -137.01091095 162.27356812 -136.3263092 162.95379639 C-134.20364437 165.0596764 -132.07078395 167.15488328 -129.9375 169.25 C-128.49606066 170.67639232 -127.05529691 172.1034677 -125.61523438 173.53125 C-122.08461168 177.02880594 -118.54480947 180.51682565 -115 184 C-111.95418514 182.63886987 -109.86160974 181.10669904 -107.51660156 178.74365234 C-106.85621887 178.08311859 -106.19583618 177.42258484 -105.51544189 176.74203491 C-104.46365753 175.67476669 -104.46365753 175.67476669 -103.390625 174.5859375 C-102.66381531 173.85629791 -101.93700562 173.12665833 -101.18817139 172.37490845 C-98.87070802 170.0462612 -96.5603005 167.71075174 -94.25 165.375 C-92.67884556 163.79381347 -91.10723629 162.21307875 -89.53515625 160.6328125 C-85.68481347 156.7604331 -81.84023883 152.88239829 -78 149 C-77.34 149.66 -76.68 150.32 -76 151 C-80.21799174 155.33662276 -84.57336766 159.41818284 -89.1484375 163.375 C-92.32382574 166.16183863 -95.24775883 169.01430468 -97.8125 172.375 C-100.30979778 175.37175734 -103.07084986 177.76680433 -106.04296875 180.28125 C-107.74669463 181.7775362 -109.23882837 183.31572203 -110.75 185 C-113 187 -113 187 -115.0625 187.125 C-117.73646572 185.57237474 -119.12423595 183.4441774 -121 181 C-121.763125 180.401875 -122.52625 179.80375 -123.3125 179.1875 C-126.36538435 176.70259414 -128.75219582 173.93655684 -131.3046875 170.953125 C-133.4231094 168.51254677 -135.68516033 166.25392284 -138 164 C-142 160 -146 156 -150 152 C-148.35869857 147.80801455 -145.27688651 145.00432746 -142.14083862 141.90032959 C-141.53476402 141.29254614 -140.92868942 140.68476269 -140.30424893 140.05856156 C-138.26989464 138.02091007 -136.22846891 135.99049438 -134.18701172 133.95996094 C-132.72817766 132.50169095 -131.26978371 131.04298058 -129.8117981 129.5838623 C-125.84956716 125.62105666 -121.88119231 121.66445525 -117.91170645 117.70891857 C-113.76546149 113.57516133 -109.62486543 109.43575387 -105.4836731 105.29693604 C-97.6395609 97.45904436 -89.79036358 89.62626564 -81.93933785 81.79529977 C-73.00203002 72.8803331 -64.07038872 63.95969859 -55.13922477 55.03857756 C-36.76579251 36.68606027 -18.38523653 18.34069142 0 0 Z " fill="#00115F" transform="translate(263,133)"/>
<path d="M0 0 C5.78565214 5.05876206 9.54417044 10.39733451 11 18 C11.1875 21.0625 11.1875 21.0625 11 23 C10.34 23.33 9.68 23.66 9 24 C8.82984375 23.20335937 8.6596875 22.40671875 8.484375 21.5859375 C6.38057978 12.38742859 3.83360291 6.68320211 -4 1 C-17.62179659 -5.69140885 -34.83285246 -4.46080658 -48.97900391 0.25927734 C-76.17671455 10.22760956 -96.8533008 29.55155517 -116.78327751 49.86093903 C-120.2474478 53.38698932 -123.7279057 56.89693593 -127.20507812 60.41015625 C-131.60005212 64.85319015 -135.99010773 69.30083618 -140.36547852 73.76318359 C-143.93253606 77.40030261 -147.51391031 81.02275518 -151.10540962 84.63573456 C-152.46602389 86.00994631 -153.82120465 87.38955994 -155.17078972 88.7746048 C-157.04684193 90.69868901 -158.94056321 92.60351972 -160.83959961 94.50488281 C-161.39186722 95.08029312 -161.94413483 95.65570343 -162.51313782 96.24855042 C-164.0877533 97.80255127 -164.0877533 97.80255127 -167 100 C-170.46329401 99.87574325 -172.80962529 98.76150961 -175.72265625 96.953125 C-176.41697754 96.52620361 -177.11129883 96.09928223 -177.82666016 95.65942383 C-178.5644873 95.19431396 -179.30231445 94.7292041 -180.0625 94.25 C-180.83384277 93.77135498 -181.60518555 93.29270996 -182.39990234 92.79956055 C-191.68809044 87.00489847 -200.85155524 81.01204094 -210 75 C-209.67 73.02 -209.34 71.04 -209 69 C-208.34 69 -207.68 69 -207 69 C-206.83628906 69.88300781 -206.67257813 70.76601563 -206.50390625 71.67578125 C-204.38430241 76.36093155 -201.3232351 77.74930853 -196.9375 80.1875 C-195.30693055 81.12994074 -193.67806666 82.07533757 -192.05078125 83.0234375 C-191.21627441 83.50651367 -190.38176758 83.98958984 -189.52197266 84.48730469 C-187.01225365 85.99265018 -184.58833311 87.58192417 -182.16796875 89.2265625 C-181.40427979 89.74323486 -180.64059082 90.25990723 -179.85375977 90.79223633 C-178.38938486 91.79110395 -176.93251688 92.801084 -175.48413086 93.82299805 C-173.29118636 95.35397278 -173.29118636 95.35397278 -170 97 C-167.11715682 95.98496371 -165.17975105 94.42667397 -163.04942322 92.276474 C-162.496073 91.72298279 -161.94272278 91.16949158 -161.37260437 90.59922791 C-160.77776749 89.99405838 -160.1829306 89.38888885 -159.57006836 88.76538086 C-158.93366425 88.12605621 -158.29726013 87.48673157 -157.64157104 86.82803345 C-156.26054439 85.43939994 -154.88183304 84.04846084 -153.50517082 82.65550041 C-151.31804341 80.44278839 -149.12467977 78.23643371 -146.92958069 76.03163147 C-141.47285022 70.54818442 -136.02688345 65.05408718 -130.58081055 59.56005859 C-125.98656742 54.92611922 -121.38809788 50.29645109 -116.78409004 45.6722126 C-114.63815714 43.51344608 -112.49841394 41.34867579 -110.35887146 39.18357849 C-103.21899138 31.99033999 -96.04821802 25.18510294 -88 19 C-87.38179886 18.51623398 -86.76359772 18.03246796 -86.12666321 17.53404236 C-63.4960727 0.08901124 -27.2051813 -18.24034178 0 0 Z " fill="#000B5A" transform="translate(363,354)"/>
<path d="M0 0 C3.34567589 3.246415 6.32378512 6.57498879 9.1875 10.25 C25.23005517 29.90147153 49.03248743 41.44885048 74 45 C76.65545877 45.125527 79.2853734 45.2099816 81.94140625 45.23828125 C82.69752197 45.24812042 83.4536377 45.25795959 84.23266602 45.26809692 C100.47874791 45.43587165 116.26643372 45.58329946 132 41 C132.81065918 40.76925781 133.62131836 40.53851563 134.45654297 40.30078125 C153.84128245 34.59516979 172.51514332 25.28585368 187.5625 11.68359375 C190 10 190 10 192.046875 9.90234375 C194.96598446 11.54288327 196.36170321 13.82446966 198.25 16.5625 C198.95640625 17.57441406 199.6628125 18.58632813 200.390625 19.62890625 C200.92171875 20.41136719 201.4528125 21.19382812 202 22 C201.01 22.33 200.02 22.66 199 23 C196.69 19.7 194.38 16.4 192 13 C188.36460679 15.38180934 184.84247273 17.84563344 181.3605957 20.44995117 C150.69957284 43.12917558 111.4260834 53.06062403 73.60791016 48.22851562 C53.22181087 45.17207829 34.64358483 37.5388116 19 24 C18.15566406 23.34 17.31132813 22.68 16.44140625 22 C10.09831134 16.80373665 1.57382207 8.27171602 0 0 Z " fill="#000656" transform="translate(732,407)"/>
<path d="M0 0 C2.99452528 1.49726264 3.056031 3.6253214 4.125 6.75 C11.47318833 26.3666548 24.73489212 40.12728867 43.3125 49.3125 C65.3670058 58.78327462 89.63137475 58.56303173 111.99365234 49.83642578 C124.74926216 44.51874274 139.01530094 36.79433809 148 26 C147.71620667 22.40528454 146.4126173 19.29610702 145 16 C148.28768825 17.09589608 148.64293383 17.47727309 150.3125 20.3125 C150.67988281 20.90675781 151.04726563 21.50101562 151.42578125 22.11328125 C152 24 152 24 151.3671875 25.97265625 C139.24331911 43.9506211 112.47881441 54.97397921 92 59 C69.61937141 62.61468661 46.94236168 57.06977043 28.3671875 44.171875 C13.86739074 33.16542862 4.206524 18.35507999 -1 1 C-0.67 0.67 -0.34 0.34 0 0 Z " fill="#000A59" transform="translate(568,399)"/>
<path d="M0 0 C0.66 0 1.32 0 2 0 C-1.59130895 9.4817269 -7.48685531 17.32336538 -14 25 C-14.68964844 25.825 -15.37929688 26.65 -16.08984375 27.5 C-33.05052657 47.129 -57.33172391 60.67451515 -83.453125 62.8671875 C-84.29359375 62.91101563 -85.1340625 62.95484375 -86 63 C-87.17046875 63.06445312 -88.3409375 63.12890625 -89.546875 63.1953125 C-105.8949545 63.80154787 -121.94861982 59.90246197 -134.8125 49.3125 C-139.45265866 44.92682902 -143.22693279 39.75944729 -146 34 C-145.67 33.34 -145.34 32.68 -145 32 C-142.62737031 34.19278021 -141.08031059 36.41678961 -139.4375 39.1875 C-132.49569473 49.76384848 -121.35248679 55.90001441 -109.203125 58.45703125 C-82.18918162 62.54698013 -55.74112848 56.22248249 -33.67919922 40.27294922 C-20.23589373 30.0819933 -9.1912509 16.98795878 -1.3046875 2.09765625 C-0.65886719 1.05931641 -0.65886719 1.05931641 0 0 Z " fill="#000856" transform="translate(917,343)"/>
<path d="M0 0 C3.67486926 1.77669299 6.99808733 3.93349627 10.3984375 6.18359375 C11.89841719 7.16539561 13.39841816 8.14716496 14.8984375 9.12890625 C16.08759766 9.91056152 16.08759766 9.91056152 17.30078125 10.70800781 C21.82274891 13.6744604 26.36223149 16.61398193 30.8984375 19.55859375 C32.61861574 20.6768893 34.33867882 21.79536203 36.05859375 22.9140625 C37.15312866 23.62598755 37.15312866 23.62598755 38.26977539 24.35229492 C38.78660889 24.68849854 39.30344238 25.02470215 39.8359375 25.37109375 C39.5059375 27.35109375 39.1759375 29.33109375 38.8359375 31.37109375 C38.1759375 31.37109375 37.5159375 31.37109375 36.8359375 31.37109375 C36.99835938 30.65050781 37.16078125 29.92992187 37.328125 29.1875 C37.13723592 26.38097141 37.13723592 26.38097141 35.43847656 25.12060547 C33.32034091 23.76328505 31.16288872 22.52542005 28.9609375 21.30859375 C27.31143516 20.35826319 25.66436888 19.4036941 24.01953125 18.4453125 C23.16601074 17.94950684 22.31249023 17.45370117 21.43310547 16.94287109 C18.82372041 15.3637001 16.31504513 13.69047888 13.80859375 11.953125 C13.00599121 11.3969751 12.20338867 10.8408252 11.37646484 10.26782227 C9.8314715 9.18658341 8.29372368 8.0949018 6.76416016 6.99194336 C2.83697002 4.22921406 2.83697002 4.22921406 -1.734375 3.12109375 C-5.56975989 5.09428212 -8.26921232 8.0226187 -11.2265625 11.12109375 C-11.83822266 11.74242187 -12.44988281 12.36375 -13.08007812 13.00390625 C-15.56446357 15.5500656 -17.92800362 18.06397876 -20.09765625 20.88671875 C-21.85734233 23.00233377 -23.50961688 24.59272513 -25.58984375 26.36328125 C-31.84904097 31.71919381 -37.55208269 37.65373872 -43.3515625 43.49609375 C-44.52515453 44.6747143 -45.6989811 45.85310137 -46.87304688 47.03125 C-49.02903925 49.19533995 -51.18366527 51.36076979 -53.33666992 53.52783203 C-55.94027524 56.147792 -58.55098727 58.76057618 -61.1640625 61.37109375 C-61.7621875 61.96921875 -62.3603125 62.56734375 -62.9765625 63.18359375 C-63.3684375 63.57546875 -63.7603125 63.96734375 -64.1640625 64.37109375 C-65.1540625 64.04109375 -66.1440625 63.71109375 -67.1640625 63.37109375 C-65.37833998 61.53162038 -63.58603801 59.69951634 -61.7890625 57.87109375 C-61.28117188 57.34644531 -60.77328125 56.82179687 -60.25 56.28125 C-58.92573646 54.93956194 -57.54800385 53.6511356 -56.1640625 52.37109375 C-55.5040625 52.37109375 -54.8440625 52.37109375 -54.1640625 52.37109375 C-54.1640625 51.71109375 -54.1640625 51.05109375 -54.1640625 50.37109375 C-53.5040625 50.37109375 -52.8440625 50.37109375 -52.1640625 50.37109375 C-51.7928125 49.51257813 -51.7928125 49.51257813 -51.4140625 48.63671875 C-49.97090051 46.02098764 -48.28190028 44.22335919 -46.1640625 42.12109375 C-45.4628125 41.4146875 -44.7615625 40.70828125 -44.0390625 39.98046875 C-42.1640625 38.37109375 -42.1640625 38.37109375 -40.1640625 38.37109375 C-39.8959375 37.73171875 -39.6278125 37.09234375 -39.3515625 36.43359375 C-38.1640625 34.37109375 -38.1640625 34.37109375 -35.1640625 33.37109375 C-35.1640625 32.71109375 -35.1640625 32.05109375 -35.1640625 31.37109375 C-34.5040625 31.37109375 -33.8440625 31.37109375 -33.1640625 31.37109375 C-32.5040625 30.05109375 -31.8440625 28.73109375 -31.1640625 27.37109375 C-30.5040625 27.37109375 -29.8440625 27.37109375 -29.1640625 27.37109375 C-29.1640625 26.71109375 -29.1640625 26.05109375 -29.1640625 25.37109375 C-28.5040625 25.37109375 -27.8440625 25.37109375 -27.1640625 25.37109375 C-26.89529297 24.77780273 -26.62652344 24.18451172 -26.34960938 23.57324219 C-25.16115518 21.36569342 -23.95663861 19.90566493 -22.1953125 18.13671875 C-21.62425781 17.56308594 -21.05320312 16.98945313 -20.46484375 16.3984375 C-19.87058594 15.81191406 -19.27632812 15.22539062 -18.6640625 14.62109375 C-18.06980469 14.01910156 -17.47554687 13.41710937 -16.86328125 12.796875 C-16.29222656 12.22839844 -15.72117187 11.65992188 -15.1328125 11.07421875 C-14.61138672 10.55504883 -14.08996094 10.03587891 -13.55273438 9.50097656 C-12.1640625 8.37109375 -12.1640625 8.37109375 -10.1640625 8.37109375 C-10.1640625 7.71109375 -10.1640625 7.05109375 -10.1640625 6.37109375 C-9.5040625 6.37109375 -8.8440625 6.37109375 -8.1640625 6.37109375 C-7.9165625 5.77296875 -7.6690625 5.17484375 -7.4140625 4.55859375 C-5.58565109 1.35887379 -3.89291794 -1.13133536 0 0 Z " fill="#000940" transform="translate(653.1640625,133.62890625)"/>
<path d="M0 0 C3.46461362 1.48260493 5.6038045 3.46955207 8.25 6.125 C24.94723513 21.39596173 47.33420786 24.87930364 69.13427734 24.18359375 C85.26669702 23.15006337 99.88065531 15.24765178 114 8 C114 8.99 114 9.98 114 11 C93.28252352 22.39396098 93.28252352 22.39396098 83 25 C82.38535889 25.17152588 81.77071777 25.34305176 81.13745117 25.51977539 C59.61250804 31.0346338 35.56581318 27.53374106 16.5 16.32421875 C10.51167209 12.52816567 2.29068096 6.87204287 0 0 Z " fill="#00024F" transform="translate(934,431)"/>
<path d="M0 0 C0.495 1.485 0.495 1.485 1 3 C-37.61 41.61 -76.22 80.22 -116 120 C-116.99 119.67 -117.98 119.34 -119 119 C-119.33 116.36 -119.66 113.72 -120 111 C-119.34 111 -118.68 111 -118 111 C-117.67 112.98 -117.34 114.96 -117 117 C-112.15178102 112.9703115 -107.86991752 108.80676868 -103.8046875 103.9921875 C-101.28596421 101.21177868 -98.4845605 98.83853478 -95.6015625 96.4453125 C-93.88412185 95.07190983 -93.88412185 95.07190983 -93 93 C-92.34 93 -91.68 93 -91 93 C-91 92.34 -91 91.68 -91 91 C-89.42578125 89.44921875 -89.42578125 89.44921875 -87.3125 87.6875 C-84.03300555 84.93914778 -81.0055611 82.04636057 -78 79 C-77.04811548 78.05733948 -76.09495979 77.11596107 -75.140625 76.17578125 C-74.17707098 75.22136663 -73.21352938 74.26693948 -72.25 73.3125 C-71.75628906 72.82716797 -71.26257813 72.34183594 -70.75390625 71.84179688 C-68.03384724 69.18159783 -68.03384724 69.18159783 -66 66 C-65.34 66 -64.68 66 -64 66 C-63.505 64.515 -63.505 64.515 -63 63 C-61.328125 61.3515625 -61.328125 61.3515625 -59.25 59.625 C-55.98923055 56.899395 -52.98301879 54.02821604 -50 51 C-39 40 -39 40 -36.35546875 37.39453125 C-33.83687263 34.83416737 -31.58665954 32.1454969 -29.33203125 29.35546875 C-28.89246094 28.90816406 -28.45289063 28.46085937 -28 28 C-27.34 28 -26.68 28 -26 28 C-25.74863281 27.40960938 -25.49726562 26.81921875 -25.23828125 26.2109375 C-23.84513594 23.72349193 -22.39035239 22.41929277 -20.1875 20.625 C-17.55896606 18.41626821 -15.25696522 16.25450385 -13.125 13.5625 C-12.073125 12.2940625 -12.073125 12.2940625 -11 11 C-10.34 11 -9.68 11 -9 11 C-9 10.34 -9 9.68 -9 9 C-7.34997172 7.64613064 -5.6825613 6.31321858 -4 5 C-3.67 4.34 -3.34 3.68 -3 3 C-2.34 3 -1.68 3 -1 3 C-0.67 2.01 -0.34 1.02 0 0 Z " fill="#000B51" transform="translate(539,244)"/>
<path d="M0 0 C0.99 0 1.98 0 3 0 C3.38897161 1.62171239 3.76078298 3.24754925 4.125 4.875 C4.43824219 6.23238281 4.43824219 6.23238281 4.7578125 7.6171875 C4.87769531 8.79667969 4.87769531 8.79667969 5 10 C4.34 10.66 3.68 11.32 3 12 C2.505 8.04 2.505 8.04 2 4 C-0.73118475 6.70575472 -3.42176811 9.43651553 -6.05859375 12.234375 C-18.03350305 24.79533207 -32.55916773 36.69659629 -50.8125 37.5 C-59.63624301 36.88631863 -68.70967185 33.70029284 -74.7578125 27.07421875 C-78.16355853 22.70597927 -81 18.6960698 -81 13 C-80.34 13 -79.68 13 -79 13 C-78.76925781 13.58007812 -78.53851562 14.16015625 -78.30078125 14.7578125 C-75.04614459 22.55350348 -71.80458402 27.55903681 -63.96484375 31.23828125 C-53.95352003 35.11941073 -42.76832487 33.80308263 -33.13671875 29.62109375 C-27.76764936 26.8462945 -22.85028762 23.59652051 -18 20 C-17.34386719 19.51789063 -16.68773437 19.03578125 -16.01171875 18.5390625 C-9.64663826 13.47626285 -4.48917888 6.73376832 0 0 Z " fill="#000652" transform="translate(1045,372)"/>
<path d="M0 0 C0.99 0.495 0.99 0.495 2 1 C2.921875 4.0546875 2.921875 4.0546875 3.75 7.875 C4.03359375 9.13054687 4.3171875 10.38609375 4.609375 11.6796875 C5 15 5 15 3 18 C1.68 13.71 0.36 9.42 -1 5 C-1.969375 6.299375 -2.93875 7.59875 -3.9375 8.9375 C-16.18273687 24.60058411 -31.47382302 35.33742553 -51.33984375 38.35546875 C-59.91259913 38.92905274 -68.15227348 34.86848643 -74.625 29.5 C-77.3397859 26.92602249 -79.09744669 24.7230324 -80 21 C-76.71490353 22.09503216 -76.29305623 22.66230012 -74.3125 25.3125 C-70.40379053 30.07135377 -65.74064979 32.08645007 -60 34 C-42.93641785 35.51387928 -29.94130304 29.78647142 -17 19 C-10.56084695 13.30643309 -5.21746009 6.8097095 0 0 Z " fill="#000958" transform="translate(698,371)"/>
<path d="M0 0 C0 4.2174297 -1.75795268 5.15679404 -4.6940918 8.12988281 C-5.193246 8.63911285 -5.69240021 9.1483429 -6.2066803 9.67300415 C-7.8629042 11.35777872 -9.53027345 13.03095735 -11.19921875 14.703125 C-12.35331964 15.86686152 -13.50719138 17.03082532 -14.6608429 18.19500732 C-17.08259756 20.63474082 -19.51049144 23.06817504 -21.94213867 25.49804688 C-25.06033169 28.61593484 -28.15737484 31.75394935 -31.2494688 34.89769363 C-33.62670232 37.30824675 -36.01741 39.70507715 -38.41214943 42.09822845 C-39.56006471 43.24968966 -40.70310492 44.40603197 -41.84116173 45.56723785 C-43.43323772 47.18863957 -45.0431208 48.78999799 -46.65893555 50.38769531 C-48.02794258 51.76311493 -48.02794258 51.76311493 -49.42460632 53.1663208 C-52 55 -52 55 -54.71589661 54.84458923 C-56.87968983 54.0444869 -58.72618497 53.19788294 -60.6875 51.98828125 C-61.37658447 51.56683838 -62.06566895 51.14539551 -62.77563477 50.71118164 C-63.87669556 50.01883423 -63.87669556 50.01883423 -65 49.3125 C-66.15423462 48.59404907 -66.15423462 48.59404907 -67.33178711 47.86108398 C-69.89624248 46.25359519 -72.44910865 44.62892168 -75 43 C-75.94891113 42.39736328 -76.89782227 41.79472656 -77.87548828 41.17382812 C-80.78163904 39.31906413 -83.67400985 37.44462789 -86.5625 35.5625 C-87.48482422 34.97186768 -88.40714844 34.38123535 -89.35742188 33.77270508 C-90.21013672 33.20962646 -91.06285156 32.64654785 -91.94140625 32.06640625 C-92.70138916 31.57084229 -93.46137207 31.07527832 -94.24438477 30.56469727 C-96.2670495 28.76199134 -96.63972364 27.64476412 -97 25 C-91.26592347 28.62869206 -85.54925066 32.28299161 -79.85424805 35.97265625 C-78.40410626 36.91120435 -76.95243056 37.84738647 -75.49926758 38.78125 C-71.95352231 41.0636778 -68.43752003 43.37358915 -64.97265625 45.77734375 C-64.34335205 46.20547363 -63.71404785 46.63360352 -63.06567383 47.07470703 C-61.88466716 47.87983058 -60.71320655 48.6992014 -59.5534668 49.53466797 C-57.79337446 50.78046568 -57.79337446 50.78046568 -55 52 C-50.55063048 50.84675248 -48.03169262 48.39649029 -44.8425293 45.18310547 C-44.35412064 44.69513489 -43.86571198 44.20716431 -43.36250305 43.70440674 C-41.7591889 42.0990122 -40.16674783 40.48327518 -38.57421875 38.8671875 C-37.46100948 37.74837962 -36.34713347 36.63023476 -35.23262024 35.51272583 C-32.30791543 32.5765932 -29.39233389 29.63156204 -26.47857666 26.68457031 C-23.50095328 23.67620166 -20.51476786 20.67635858 -17.52929688 17.67578125 C-11.67779629 11.79215292 -5.83590873 5.89909387 0 0 Z " fill="#000B58" transform="translate(456,399)"/>
<path d="M0 0 C2.95112799 0.6141217 5.16965712 1.5371895 7.73046875 3.1171875 C8.7992627 3.77255493 8.7992627 3.77255493 9.88964844 4.44116211 C10.64793945 4.91432861 11.40623047 5.38749512 12.1875 5.875 C12.97543945 6.36170166 13.76337891 6.84840332 14.57519531 7.34985352 C24.83518754 13.71484869 34.96610374 20.28476819 45 27 C43.63125844 33.95776959 41.5466871 40.38603107 39 47 C38.34 47 37.68 47 37 47 C37.54232054 42.66143569 38.67432318 39.01557878 40.37890625 35.02734375 C41.15949764 32.47937562 41.37068171 30.6495318 41 28 C39.34072228 26.17046863 39.34072228 26.17046863 36.9375 24.75 C36.02484375 24.15574219 35.1121875 23.56148437 34.171875 22.94921875 C29.41587967 20.02650733 24.64851343 17.12710198 19.84375 14.28515625 C15.02572988 11.43270265 10.27038672 8.48127295 5.51171875 5.53125 C3.12031202 4.02526705 3.12031202 4.02526705 1 3 C0.81824219 3.6290625 0.63648438 4.258125 0.44921875 4.90625 C-1.15552584 10.37061108 -2.93585454 15.69219738 -5 21 C-5.66 20.01 -6.32 19.02 -7 18 C-6.58447266 16.00708008 -6.58447266 16.00708008 -5.6640625 13.76953125 C-5.34179688 12.96708984 -5.01953125 12.16464844 -4.6875 11.33789062 C-4.336875 10.50451172 -3.98625 9.67113281 -3.625 8.8125 C-3.28210938 7.96751953 -2.93921875 7.12253906 -2.5859375 6.25195312 C-1.73605309 4.16265395 -0.87377064 2.07939697 0 0 Z " fill="#000A5C" transform="translate(995,134)"/>
<path d="M0 0 C0.99 0.99 0.99 0.99 2 2 C-2.21799174 6.33662276 -6.57336766 10.41818284 -11.1484375 14.375 C-14.32382574 17.16183863 -17.24775883 20.01430468 -19.8125 23.375 C-22.30979778 26.37175734 -25.07084986 28.76680433 -28.04296875 31.28125 C-29.74669463 32.7775362 -31.23882837 34.31572203 -32.75 36 C-35 38 -35 38 -37.0625 38.125 C-39.73646572 36.57237474 -41.12423595 34.4441774 -43 32 C-44.1446875 31.1028125 -44.1446875 31.1028125 -45.3125 30.1875 C-48.36538435 27.70259414 -50.75219582 24.93655684 -53.3046875 21.953125 C-55.4231094 19.51254677 -57.68516033 17.25392284 -60 15 C-61.66666667 13.33333333 -63.33333333 11.66666667 -65 10 C-65.92619141 9.10861328 -65.92619141 9.10861328 -66.87109375 8.19921875 C-67.83208984 7.26529297 -67.83208984 7.26529297 -68.8125 6.3125 C-69.41707031 5.73113281 -70.02164063 5.14976562 -70.64453125 4.55078125 C-72 3 -72 3 -72 1 C-71.34 1 -70.68 1 -70 1 C-68.74584961 2.27539062 -68.74584961 2.27539062 -67.21484375 4.15625 C-61.70755835 10.63305751 -55.5911549 16.51465793 -49.5625 22.5 C-48.3415631 23.71591114 -47.12085808 24.93205516 -45.90039062 26.1484375 C-42.93625987 29.10164966 -39.96901042 32.05169398 -37 35 C-33.95418514 33.63886987 -31.86160974 32.10669904 -29.51660156 29.74365234 C-28.85621887 29.08311859 -28.19583618 28.42258484 -27.51544189 27.74203491 C-26.81425232 27.03052277 -26.11306274 26.31901062 -25.390625 25.5859375 C-24.66381531 24.85629791 -23.93700562 24.12665833 -23.18817139 23.37490845 C-20.87070802 21.0462612 -18.5603005 18.71075174 -16.25 16.375 C-14.67884556 14.79381347 -13.10723629 13.21307875 -11.53515625 11.6328125 C-7.68481347 7.7604331 -3.84023883 3.88239829 0 0 Z " fill="#000A52" transform="translate(185,282)"/>
<path d="M0 0 C5.85535264 2.76265072 11.33521903 5.74353772 16.671875 9.41015625 C19.1450715 11.09906728 21.65709623 12.71065083 24.1875 14.3125 C28.69864296 17.17041159 33.19652829 20.0480483 37.6875 22.9375 C38.31229248 23.3394458 38.93708496 23.7413916 39.58081055 24.15551758 C41.05400697 25.1034713 42.52702368 26.0517043 44 27 C43.39718464 31.56727672 42.58544719 35.66644435 41 40 C40.34 40 39.68 40 39 40 C39.33 36.04 39.66 32.08 40 28 C30.92621078 22.09797065 21.83102842 16.23103261 12.6875 10.4375 C11.88207764 9.92541992 11.07665527 9.41333984 10.24682617 8.88574219 C9.48861572 8.4065332 8.73040527 7.92732422 7.94921875 7.43359375 C7.28237061 7.01134521 6.61552246 6.58909668 5.9284668 6.15405273 C3.9947543 4.99686081 2.02803999 3.98083594 0 3 C-0.33 4.65 -0.66 6.3 -1 8 C-1.33 8 -1.66 8 -2 8 C-2.125 5.125 -2.125 5.125 -2 2 C-1.34 1.34 -0.68 0.68 0 0 Z " fill="#000755" transform="translate(788,134)"/>
<path d="M0 0 C2.49368358 2.21860624 3.64697934 4.1263446 4.796875 7.24609375 C5.11261475 8.07818359 5.42835449 8.91027344 5.75366211 9.76757812 C6.08245361 10.64865234 6.41124512 11.52972656 6.75 12.4375 C9.5165147 19.63909771 12.49530158 26.17259109 16.65234375 32.6875 C18.87313649 36.4982516 18.87313649 36.4982516 19 39 C17.6640625 40.89453125 17.6640625 40.89453125 15.625 42.8125 C14.89539062 43.49957031 14.16578125 44.18664062 13.4140625 44.89453125 C9.73675679 48.10176067 5.92005506 51.09625551 2 54 C1.34 53.34 0.68 52.68 0 52 C2.09958993 50.1819528 4.20428727 48.37049966 6.3125 46.5625 C6.90740234 46.04623047 7.50230469 45.52996094 8.11523438 44.99804688 C8.98051758 44.25844727 8.98051758 44.25844727 9.86328125 43.50390625 C10.65665894 42.82050171 10.65665894 42.82050171 11.46606445 42.12329102 C13 41 13 41 16 40 C14.42309762 35.35689854 12.61825159 31.1992902 10.1875 26.9375 C5.54284402 18.6235658 1.23630542 9.4977346 0 0 Z " fill="#000B57" transform="translate(1049,386)"/>
<path d="M0 0 C0.66 0 1.32 0 2 0 C2.16371094 0.88300781 2.32742187 1.76601563 2.49609375 2.67578125 C4.61569759 7.36093155 7.6767649 8.74930853 12.0625 11.1875 C13.69306945 12.12994074 15.32193334 13.07533757 16.94921875 14.0234375 C17.78372559 14.50651367 18.61823242 14.98958984 19.47802734 15.48730469 C21.98774635 16.99265018 24.41166689 18.58192417 26.83203125 20.2265625 C27.59572021 20.74323486 28.35940918 21.25990723 29.14624023 21.79223633 C30.61061514 22.79110395 32.06748312 23.801084 33.51586914 24.82299805 C35.70881364 26.35397278 35.70881364 26.35397278 39 28 C40.35053835 27.36891491 41.68486895 26.70189212 43 26 C43.99 26.33 44.98 26.66 46 27 C44.3125 29.0625 44.3125 29.0625 42 31 C36.97741647 30.80752873 33.06100134 27.84936375 28.9375 25.25 C28.16615723 24.77135498 27.39481445 24.29270996 26.60009766 23.79956055 C17.31190956 18.00489847 8.14844476 12.01204094 -1 6 C-0.67 4.02 -0.34 2.04 0 0 Z " fill="#000655" transform="translate(154,423)"/>
<path d="M0 0 C4.37926306 1.55393205 8.16309408 3.82990431 12.0625 6.3125 C12.73990234 6.73966309 13.41730469 7.16682617 14.11523438 7.60693359 C23.13379756 13.31557856 32.06747602 19.15801904 41 25 C40.67 26.32 40.34 27.64 40 29 C39.57468994 28.55269531 39.14937988 28.10539062 38.71118164 27.64453125 C37.08477917 26.08147702 35.51258576 24.90676994 33.62109375 23.6875 C32.95553467 23.25655029 32.28997559 22.82560059 31.60424805 22.3815918 C30.88922119 21.9256665 30.17419434 21.46974121 29.4375 21 C28.69604736 20.52667236 27.95459473 20.05334473 27.19067383 19.56567383 C25.61351479 18.56196711 24.03494066 17.56048109 22.45507812 16.56103516 C19.96449194 14.97742258 17.49020638 13.37019665 15.015625 11.76171875 C13.40698054 10.73583275 11.7976256 9.7110598 10.1875 8.6875 C9.42945068 8.18927734 8.67140137 7.69105469 7.89038086 7.17773438 C7.17760986 6.73107422 6.46483887 6.28441406 5.73046875 5.82421875 C5.10551514 5.42291748 4.48056152 5.02161621 3.83666992 4.6081543 C1.94509666 3.76522866 1.94509666 3.76522866 -0.0925293 4.81567383 C-0.72199463 5.20650146 -1.35145996 5.5973291 -2 6 C-3.33333333 6.66666667 -4.66666667 7.33333333 -6 8 C-4.55746343 4.63408134 -2.66735273 2.48952921 0 0 Z " fill="#000654" transform="translate(263,133)"/>
<path d="M0 0 C0.495 1.485 0.495 1.485 1 3 C-13.19 17.19 -27.38 31.38 -42 46 C-42.99 45.67 -43.98 45.34 -45 45 C-44.31292969 44.39671875 -43.62585938 43.7934375 -42.91796875 43.171875 C-42.01691406 42.37265625 -41.11585938 41.5734375 -40.1875 40.75 C-39.29417969 39.96109375 -38.40085937 39.1721875 -37.48046875 38.359375 C-34.99430466 36.13050012 -34.99430466 36.13050012 -33.30078125 33.703125 C-32.87152344 33.14109375 -32.44226563 32.5790625 -32 32 C-31.34 32 -30.68 32 -30 32 C-30 31.34 -30 30.68 -30 30 C-28.49609375 28.5546875 -28.49609375 28.5546875 -26.4375 26.875 C-22.75079425 23.76250683 -19.67247165 20.44487395 -16.640625 16.69921875 C-14.88886609 14.88489702 -13.30419655 13.98679722 -11 13 C-11 12.34 -11 11.68 -11 11 C-10.34 11 -9.68 11 -9 11 C-8.34 9.68 -7.68 8.36 -7 7 C-6.34 7 -5.68 7 -5 7 C-5 6.34 -5 5.68 -5 5 C-4.34 5 -3.68 5 -3 5 C-2.690625 4.360625 -2.38125 3.72125 -2.0625 3.0625 C-1 1 -1 1 0 0 Z " fill="#00093F" transform="translate(585,198)"/>
<path d="M0 0 C3.45870128 1.6358074 6.6572787 3.59344992 9.87890625 5.64453125 C10.55630859 6.07169434 11.23371094 6.49885742 11.93164062 6.93896484 C20.95020381 12.64760981 29.88388227 18.49005029 38.81640625 24.33203125 C38.48640625 26.31203125 38.15640625 28.29203125 37.81640625 30.33203125 C37.15640625 30.33203125 36.49640625 30.33203125 35.81640625 30.33203125 C35.97882812 29.61144531 36.14125 28.89085937 36.30859375 28.1484375 C36.11770467 25.34190891 36.11770467 25.34190891 34.41894531 24.08154297 C32.30088948 22.72427371 30.14292767 21.48691991 27.94140625 20.26953125 C26.29348911 19.31478561 24.6477175 18.35632889 23.00390625 17.39453125 C21.72386719 16.65009766 21.72386719 16.65009766 20.41796875 15.890625 C15.36733896 12.86479724 10.52447602 9.52534519 5.65673828 6.21655273 C4.94888184 5.73774658 4.24102539 5.25894043 3.51171875 4.765625 C2.89312988 4.34337646 2.27454102 3.92112793 1.63720703 3.48608398 C-0.24788129 2.29128478 -2.17213111 1.29612313 -4.18359375 0.33203125 C-2.18359375 -0.66796875 -2.18359375 -0.66796875 0 0 Z " fill="#000857" transform="translate(654.18359375,134.66796875)"/>
<path d="M0 0 C0.66 0 1.32 0 2 0 C1.9292627 0.62438965 1.85852539 1.2487793 1.78564453 1.89208984 C0.96850946 9.81499698 0.85038077 17.66478328 0.875 25.625 C0.87113281 26.883125 0.86726562 28.14125 0.86328125 29.4375 C0.87020637 36.04406296 1.10527085 42.45285496 2 49 C1.01 49.495 1.01 49.495 0 50 C-1.87837034 41.61365405 -2.30557116 33.57648201 -2.25 25 C-2.25773438 23.80632812 -2.26546875 22.61265625 -2.2734375 21.3828125 C-2.25737269 14.04119341 -1.60517002 7.16659052 0 0 Z " fill="#001561" transform="translate(719,329)"/>
<path d="M0 0 C1.27875 0.28875 2.5575 0.5775 3.875 0.875 C5.58105378 1.26023795 7.29001548 1.63260279 9 2 C10.04559082 2.2470166 10.04559082 2.2470166 11.11230469 2.49902344 C18.99094307 4.25229789 26.73824446 4.40363114 34.78125 4.56640625 C35.8125 4.59605469 36.84375 4.62570312 37.90625 4.65625 C38.83759766 4.67494141 39.76894531 4.69363281 40.72851562 4.71289062 C43 5 43 5 45 7 C30.33694939 8.46038458 16.00940626 8.16317184 2 3 C2 2.34 2 1.68 2 1 C1.34 0.67 0.68 0.34 0 0 Z " fill="#000049" transform="translate(615,451)"/>
<path d="M0 0 C0.66 0.66 1.32 1.32 2 2 C0.18633369 7.03580195 -1.62847737 12.07118931 -3.44433594 17.10620117 C-4.06151052 18.81800256 -4.67837585 20.52991548 -5.29492188 22.24194336 C-6.18277395 24.70716489 -7.07174884 27.17197905 -7.9609375 29.63671875 C-8.37199234 30.77919319 -8.37199234 30.77919319 -8.79135132 31.94474792 C-10.13191774 35.6572953 -11.50328214 39.34661907 -13 43 C-13.66 43 -14.32 43 -15 43 C-12.70301147 33.47331356 -9.29933972 24.44848948 -5.8125 15.3125 C-5.24758319 13.8211391 -4.68312676 12.32960373 -4.11914062 10.83789062 C-2.75138483 7.22323015 -1.37744885 3.61097723 0 0 Z " fill="#000F5A" transform="translate(264,268)"/>
<path d="M0 0 C0.66 0 1.32 0 2 0 C-0.16546081 7.60989634 -2.73601612 15.02582704 -5.5 22.4375 C-5.89058594 23.51193359 -6.28117188 24.58636719 -6.68359375 25.69335938 C-7.06644531 26.72138672 -7.44929687 27.74941406 -7.84375 28.80859375 C-8.18599609 29.73470459 -8.52824219 30.66081543 -8.88085938 31.61499023 C-9.98435426 33.96665723 -11.0474162 35.31872479 -13 37 C-13 33.74668586 -12.32141085 31.83653019 -11.171875 28.80859375 C-10.58986328 27.26655273 -10.58986328 27.26655273 -9.99609375 25.69335938 C-9.58488281 24.61892578 -9.17367187 23.54449219 -8.75 22.4375 C-8.35425781 21.39013672 -7.95851563 20.34277344 -7.55078125 19.26367188 C-5.1053331 12.81330127 -2.5868663 6.39491189 0 0 Z " fill="#000D5B" transform="translate(934,302)"/>
<path d="M0 0 C0.66 0.66 1.32 1.32 2 2 C-5.92 9.92 -13.84 17.84 -22 26 C-22.66 25.34 -23.32 24.68 -24 24 C-16.08 16.08 -8.16 8.16 0 0 Z " fill="#000654" transform="translate(211,256)"/>
<path d="M0 0 C0.66 0 1.32 0 2 0 C2 12.21 2 24.42 2 37 C-1.20860263 32.72186317 -1.37205724 31.95339305 -1.328125 26.9140625 C-1.32296875 25.73585938 -1.3178125 24.55765625 -1.3125 23.34375 C-1.291875 22.1165625 -1.27125 20.889375 -1.25 19.625 C-1.24484375 18.40554688 -1.2396875 17.18609375 -1.234375 15.9296875 C-1.18689972 10.49376847 -1.00246223 5.3548358 0 0 Z " fill="#00085B" transform="translate(566,358)"/>
<path d="M0 0 C0.66 0.66 1.32 1.32 2 2 C-18.47572816 14 -18.47572816 14 -25 14 C-25 13.34 -25 12.68 -25 12 C-24.28457031 11.72027344 -23.56914063 11.44054687 -22.83203125 11.15234375 C-14.877714 7.95209451 -7.4708863 4.18128637 0 0 Z " fill="#000659" transform="translate(1047,439)"/>
<path d="M0 0 C0.66 0.66 1.32 1.32 2 2 C-1.63 11.9 -5.26 21.8 -9 32 C-9.66 32 -10.32 32 -11 32 C-8.51558509 20.9495295 -4.11999404 10.51748212 0 0 Z " fill="#000E5A" transform="translate(296,180)"/>
<path d="M0 0 C0.66 0.33 1.32 0.66 2 1 C-5.59 8.59 -13.18 16.18 -21 24 C-21.99 23.67 -22.98 23.34 -24 23 C-23.31292969 22.39671875 -22.62585938 21.7934375 -21.91796875 21.171875 C-21.01691406 20.37265625 -20.11585938 19.5734375 -19.1875 18.75 C-17.84751953 17.56664062 -17.84751953 17.56664062 -16.48046875 16.359375 C-13.99430466 14.13050012 -13.99430466 14.13050012 -12.30078125 11.703125 C-11.87152344 11.14109375 -11.44226563 10.5790625 -11 10 C-10.34 10 -9.68 10 -9 10 C-9 9.34 -9 8.68 -9 8 C-7.28515625 6.30859375 -7.28515625 6.30859375 -5.0625 4.4375 C-4.33160156 3.81746094 -3.60070312 3.19742188 -2.84765625 2.55859375 C-2.23792969 2.04425781 -1.62820313 1.52992188 -1 1 C-0.67 0.67 -0.34 0.34 0 0 Z " fill="#000B4F" transform="translate(564,220)"/>
<path d="M0 0 C0.66 0 1.32 0 2 0 C1.46585373 5.72514527 -0.16048662 10.23868689 -2.5625 15.4375 C-2.89185547 16.16904297 -3.22121094 16.90058594 -3.56054688 17.65429688 C-4.36577106 19.43979399 -5.18177846 21.22042155 -6 23 C-6.99 23 -7.98 23 -9 23 C-8.51789063 21.92621094 -8.03578125 20.85242188 -7.5390625 19.74609375 C-6.90080003 18.3100032 -6.26279278 16.87379921 -5.625 15.4375 C-5.30789063 14.73302734 -4.99078125 14.02855469 -4.6640625 13.30273438 C-2.72665078 8.92337664 -1.2060856 4.63551081 0 0 Z " fill="#000F55" transform="translate(370,399)"/>
<path d="M0 0 C0.66 0.66 1.32 1.32 2 2 C-0.97 10.25 -3.94 18.5 -7 27 C-7.66 27 -8.32 27 -9 27 C-7.71011592 20.49194848 -5.8622531 14.57980187 -3.375 8.4375 C-3.05015625 7.61958984 -2.7253125 6.80167969 -2.390625 5.95898438 C-1.59978204 3.97024694 -0.80075781 1.98476601 0 0 Z " fill="#000F5D" transform="translate(1018,218)"/>
<path d="M0 0 C0.66 0 1.32 0 2 0 C1.36306741 3.5922998 0.4129328 6.87918241 -0.84765625 10.30078125 C-1.20537109 11.27724609 -1.56308594 12.25371094 -1.93164062 13.25976562 C-2.49141602 14.77086914 -2.49141602 14.77086914 -3.0625 16.3125 C-3.62807617 17.85260742 -3.62807617 17.85260742 -4.20507812 19.42382812 C-5.13346068 21.95043887 -6.06520129 24.47575761 -7 27 C-7.66 26.01 -8.32 25.02 -9 24 C-8.40087891 21.45629883 -8.40087891 21.45629883 -7.2265625 18.45703125 C-6.8140625 17.38388672 -6.4015625 16.31074219 -5.9765625 15.20507812 C-5.30753906 13.52575195 -5.30753906 13.52575195 -4.625 11.8125 C-4.18671875 10.68134766 -3.7484375 9.55019531 -3.296875 8.38476562 C-2.20999482 5.58486776 -1.11065127 2.79053502 0 0 Z " fill="#00105B" transform="translate(181,349)"/>
<path d="M0 0 C4.2877398 0.74086217 5.93444959 2.61206962 8.60546875 5.8984375 C11.77231289 10.67088048 13.5566772 16.2476689 13 22 C12.34 22.33 11.68 22.66 11 23 C10.82984375 22.20335937 10.6596875 21.40671875 10.484375 20.5859375 C9.12125549 14.62591496 7.90311447 9.84932404 4 5 C3.2575 4.05125 2.515 3.1025 1.75 2.125 C1.1725 1.42375 0.595 0.7225 0 0 Z " fill="#00105E" transform="translate(361,355)"/>
<path d="M0 0 C0.66 0.66 1.32 1.32 2 2 C-0.64 9.26 -3.28 16.52 -6 24 C-6.66 24 -7.32 24 -8 24 C-7.3661521 18.482845 -5.49435691 13.73252191 -3.4375 8.625 C-2.9434668 7.37783203 -2.9434668 7.37783203 -2.43945312 6.10546875 C-1.63155238 4.06815382 -0.8182989 2.03315558 0 0 Z " fill="#000D5D" transform="translate(688,168)"/>
<path d="M0 0 C3.61181604 3.27790785 4.94694555 7.05543368 6.75 11.5 C7.07871094 12.27214844 7.40742187 13.04429687 7.74609375 13.83984375 C8.05160156 14.58363281 8.35710938 15.32742188 8.671875 16.09375 C8.9512793 16.77115234 9.23068359 17.44855469 9.51855469 18.14648438 C10 20 10 20 9 23 C4.98119232 15.44593101 1.32703621 8.55201116 0 0 Z " fill="#000F5B" transform="translate(702,390)"/>
<path d="M0 0 C0.99 0.33 1.98 0.66 3 1 C2.98839844 2.10859375 2.97679687 3.2171875 2.96484375 4.359375 C2.95546208 5.82291498 2.94636229 7.28645678 2.9375 8.75 C2.92912109 9.47960937 2.92074219 10.20921875 2.91210938 10.9609375 C2.89608316 14.48670558 3.04707287 17.61034916 4 21 C3.01 21 2.02 21 1 21 C0.21311555 18.22276075 -0.11949924 15.77389923 -0.09765625 12.890625 C-0.09443359 12.13652344 -0.09121094 11.38242187 -0.08789062 10.60546875 C-0.07951172 9.82816406 -0.07113281 9.05085938 -0.0625 8.25 C-0.05798828 7.45722656 -0.05347656 6.66445313 -0.04882812 5.84765625 C-0.03708565 3.89840492 -0.01915146 1.94919262 0 0 Z " fill="#000A58" transform="translate(615,369)"/>
<path d="M0 0 C0.66 0 1.32 0 2 0 C1.35983027 5.13756468 -0.19700333 9.58790181 -2.0625 14.375 C-2.34416016 15.11105469 -2.62582031 15.84710938 -2.91601562 16.60546875 C-3.60566618 18.4055736 -4.30213932 20.2030621 -5 22 C-5.66 21.34 -6.32 20.68 -7 20 C-4.69 13.4 -2.38 6.8 0 0 Z " fill="#000D5E" transform="translate(189,326)"/>
<path d="M0 0 C0.99 0 1.98 0 3 0 C4.1793149 2.22324926 5.34340918 4.45246639 6.5 6.6875 C6.83386719 7.31333984 7.16773438 7.93917969 7.51171875 8.58398438 C9.3695262 12.20481317 10.43750214 14.91404255 10 19 C6.99951754 15.41788555 5.22301226 11.46987884 3.3125 7.25 C2.99216797 6.55261719 2.67183594 5.85523438 2.34179688 5.13671875 C1.55693739 3.42642792 0.77788352 1.71347493 0 0 Z " fill="#000D58" transform="translate(409,334)"/>
<path d="M0 0 C0.66 0 1.32 0 2 0 C2.21914063 0.556875 2.43828125 1.11375 2.6640625 1.6875 C5.06417149 7.46337205 8.04678655 12.16390222 12 17 C9 17 9 17 7.5 15.71484375 C3.51324647 10.99095611 0 6.43669236 0 0 Z " fill="#000D5C" transform="translate(964,385)"/>
<path d="M0 0 C0.66 0.33 1.32 0.66 2 1 C-1.63 4.63 -5.26 8.26 -9 12 C-9.99 11.67 -10.98 11.34 -12 11 C-12.33 8.36 -12.66 5.72 -13 3 C-12.34 3 -11.68 3 -11 3 C-10.67 4.98 -10.34 6.96 -10 9 C-8.70756532 7.8758824 -7.41607925 6.75067408 -6.125 5.625 C-5.40570313 4.99851562 -4.68640625 4.37203125 -3.9453125 3.7265625 C-2.5923402 2.52573166 -1.2791655 1.2791655 0 0 Z " fill="#000E5F" transform="translate(432,352)"/>
<path d="M0 0 C5.94 0.66 11.88 1.32 18 2 C18.33 2.99 18.66 3.98 19 5 C16.20590234 4.74571916 13.41599181 4.47243244 10.625 4.1875 C9.8309375 4.11724609 9.036875 4.04699219 8.21875 3.97460938 C6.13220534 3.7535771 4.06260683 3.3849376 2 3 C1.34 2.01 0.68 1.02 0 0 Z " fill="#000049" transform="translate(796,451)"/>
<path d="M0 0 C3.42856619 1.50982731 5.95678216 3.51713969 8.75 6 C9.54921875 6.70125 10.3484375 7.4025 11.171875 8.125 C13 10 13 10 13 12 C9.02031425 10.66182195 6.61251238 8.99662286 3.6875 6 C2.99011719 5.29875 2.29273438 4.5975 1.57421875 3.875 C0 2 0 2 0 0 Z " fill="#000D60" transform="translate(934,431)"/>
<path d="M0 0 C3.57040303 0.65902299 6.17732255 2.16229158 9.25 4.0625 C10.14203125 4.61035156 11.0340625 5.15820312 11.953125 5.72265625 C12.96632813 6.35494141 12.96632813 6.35494141 14 7 C10.5027933 8.21942076 10.5027933 8.21942076 8.21875 7.22265625 C7.36796875 6.64837891 7.36796875 6.64837891 6.5 6.0625 C3.50834184 4.05672919 2.93767568 4 -1 4 C-0.67 2.68 -0.34 1.36 0 0 Z " fill="#000249" transform="translate(442,133)"/>
<path d="M0 0 C0.66 0 1.32 0 2 0 C1.3741355 7.00435592 0.71325905 14.00399099 0 21 C-0.33 21 -0.66 21 -1 21 C-2.18982084 13.58773774 -1.67959957 7.30139977 0 0 Z " fill="#000B56" transform="translate(719,329)"/>
<path d="M0 0 C0.66 0.33 1.32 0.66 2 1 C0.71291613 6.54436129 -0.91864693 11.70201036 -3 17 C-3.33 17 -3.66 17 -4 17 C-3.45018084 10.95198929 -2.09570426 5.69398894 0 0 Z " fill="#001563" transform="translate(209,271)"/>
<path d="M0 0 C0.99 0.33 1.98 0.66 3 1 C-0.07517084 11.55808656 -0.07517084 11.55808656 -2 16 C-3.60080151 11.99799622 -2.29279692 8.95443764 -1 5 C-0.34 5 0.32 5 1 5 C1 4.34 1 3.68 1 3 C0.34 2.67 -0.32 2.34 -1 2 C-0.67 1.34 -0.34 0.68 0 0 Z " fill="#00125D" transform="translate(603,251)"/>
<path d="M0 0 C3.40053502 1.58691634 6.5779386 3.40981682 9.8125 5.3125 C9.4825 6.3025 9.1525 7.2925 8.8125 8.3125 C8.20921875 7.90257812 7.6059375 7.49265625 6.984375 7.0703125 C6.18515625 6.53148437 5.3859375 5.99265625 4.5625 5.4375 C3.77359375 4.90382812 2.9846875 4.37015625 2.171875 3.8203125 C0.09694308 2.49427985 -1.96364972 1.36321825 -4.1875 0.3125 C-2.1875 -0.6875 -2.1875 -0.6875 0 0 Z " fill="#00024A" transform="translate(654.1875,134.6875)"/>
<path d="M0 0 C0.66 0 1.32 0 2 0 C0.41078475 5.36095277 -1.18972938 10.70843973 -3 16 C-3.66 15.01 -4.32 14.02 -5 13 C-4.1015625 9.86328125 -4.1015625 9.86328125 -2.625 6.3125 C-2.14289063 5.13300781 -1.66078125 3.95351563 -1.1640625 2.73828125 C-0.77992188 1.83464844 -0.39578125 0.93101562 0 0 Z " fill="#000B56" transform="translate(161,404)"/>
<path d="M0 0 C0.33 0 0.66 0 1 0 C1.24991456 6.65050424 0.73955334 12.56986533 -1 19 C-3.30903272 15.01647791 -2.86516528 12.49885947 -2 8 C-1.34 8 -0.68 8 0 8 C0 5.36 0 2.72 0 0 Z " fill="#000D59" transform="translate(374,379)"/>
<path d="M0 0 C0.70125 0.721875 1.4025 1.44375 2.125 2.1875 C4.92770745 4.99823813 7.92262792 7.49516226 11 10 C10.01 10.66 9.02 11.32 8 12 C2.00704225 6.16901408 2.00704225 6.16901408 0 3 C0 2.01 0 1.02 0 0 Z " fill="#000A48" transform="translate(583,427)"/>
<path d="M0 0 C0.66 0.33 1.32 0.66 2 1 C1.01 3.97 0.02 6.94 -1 10 C-3 9 -3 9 -3.875 6.6875 C-4 4 -4 4 -2.0625 1.6875 C-1.381875 1.130625 -0.70125 0.57375 0 0 Z " fill="#00115F" transform="translate(217,250)"/>
<path d="M0 0 C-1.38188453 3.21043882 -2.92421903 5.04936365 -5.625 7.25 C-6.57246094 8.03117187 -6.57246094 8.03117187 -7.5390625 8.828125 C-8.02117187 9.21484375 -8.50328125 9.6015625 -9 10 C-9 7 -9 7 -7.5390625 5.17578125 C-6.90742188 4.56089844 -6.27578125 3.94601562 -5.625 3.3125 C-4.68527344 2.37857422 -4.68527344 2.37857422 -3.7265625 1.42578125 C-2 0 -2 0 0 0 Z " fill="#000964" transform="translate(197,272)"/>
<path d="M0 0 C3.63491543 1.21163848 3.95246215 2.10771062 5.75 5.375 C6.19859375 6.16648437 6.6471875 6.95796875 7.109375 7.7734375 C8 10 8 10 7 13 C3.67006966 9.17058011 1.94675475 4.62477778 0 0 Z " fill="#000D59" transform="translate(724,394)"/>
<path d="M0 0 C0.33 0 0.66 0 1 0 C1 1.65 1 3.3 1 5 C0.34 5 -0.32 5 -1 5 C-2.70680947 6.62553283 -4.37660195 8.29115995 -6 10 C-6 6.433255 -5.36308045 5.89456323 -3.0625 3.3125 C-2.51722656 2.68988281 -1.97195313 2.06726563 -1.41015625 1.42578125 C-0.94480469 0.95527344 -0.47945312 0.48476563 0 0 Z " fill="#00064C" transform="translate(698,371)"/>
<path d="M0 0 C3.35595828 0.59927826 5.37801226 1.84622436 8 4 C4.23375329 5.25541557 2.62811066 4.37061958 -1 3 C-0.67 2.01 -0.34 1.02 0 0 Z " fill="#000144" transform="translate(995,134)"/>
<path d="M0 0 C3.34998521 1.11666174 3.79340222 1.74694925 5.6875 4.5625 C6.12449219 5.20316406 6.56148437 5.84382813 7.01171875 6.50390625 C7.33785156 6.99761719 7.66398438 7.49132812 8 8 C4.79837298 7.40137646 4.08063485 7.08735442 1.75 4.5625 C0 2 0 2 0 0 Z " fill="#000B64" transform="translate(618,392)"/>
<path d="M0 0 C0.66 0.33 1.32 0.66 2 1 C1.39009109 4.55780196 0.4216319 7.6828589 -1 11 C-1.66 10.34 -2.32 9.68 -3 9 C-2.01 6.03 -1.02 3.06 0 0 Z " fill="#001066" transform="translate(213,260)"/>
<path d="M0 0 C1 2 1 2 0.44140625 3.9453125 C0.15136719 4.66460937 -0.13867188 5.38390625 -0.4375 6.125 C-0.72496094 6.84945313 -1.01242188 7.57390625 -1.30859375 8.3203125 C-1.53675781 8.87460937 -1.76492187 9.42890625 -2 10 C-2.66 9.01 -3.32 8.02 -4 7 C-3.25 3.875 -3.25 3.875 -2 1 C-1.34 0.67 -0.68 0.34 0 0 Z " fill="#000B4E" transform="translate(172,377)"/>
<path d="M0 0 C0.66 0 1.32 0 2 0 C1.39009109 3.55780196 0.4216319 6.6828589 -1 10 C-1.66 9.01 -2.32 8.02 -3 7 C-1.625 3.3125 -1.625 3.3125 0 0 Z " fill="#000C58" transform="translate(582,312)"/>
<path d="M0 0 C0.33 0 0.66 0 1 0 C0.125 7.75 0.125 7.75 -1 10 C-1.66 10 -2.32 10 -3 10 C-2.39009109 6.44219804 -1.4216319 3.3171411 0 0 Z " fill="#000C59" transform="translate(300,169)"/>
<path d="M0 0 C0.66 0 1.32 0 2 0 C1.39009109 3.55780196 0.4216319 6.6828589 -1 10 C-1.66 9.01 -2.32 8.02 -3 7 C-1.625 3.3125 -1.625 3.3125 0 0 Z " fill="#000C55" transform="translate(984,164)"/>
<path d="M0 0 C3.465 1.98 3.465 1.98 7 4 C5.25 4.75 5.25 4.75 3 5 C0.75 3.0625 0.75 3.0625 -1 1 C-0.67 0.67 -0.34 0.34 0 0 Z " fill="#00084E" transform="translate(763,437)"/>
<path d="M0 0 C0.66 0 1.32 0 2 0 C1.01 3.3 0.02 6.6 -1 10 C-1.66 9.01 -2.32 8.02 -3 7 C-1.625 3.3125 -1.625 3.3125 0 0 Z " fill="#000E59" transform="translate(941,283)"/>
<path d="M0 0 C0.66 0 1.32 0 2 0 C2.33 1.98 2.66 3.96 3 6 C1.68 6 0.36 6 -1 6 C-0.67 4.02 -0.34 2.04 0 0 Z " fill="#00064C" transform="translate(154,423)"/>
<path d="M0 0 C0.66 0 1.32 0 2 0 C2.66 2.31 3.32 4.62 4 7 C3.34 7.66 2.68 8.32 2 9 C0.50178941 5.62902617 0 3.79557881 0 0 Z " fill="#000A59" transform="translate(768,365)"/>
<path d="M0 0 C2.475 0.495 2.475 0.495 5 1 C4.67 2.98 4.34 4.96 4 7 C3.34 7 2.68 7 2 7 C2.04125 6.21625 2.0825 5.4325 2.125 4.625 C2.28728734 1.83883881 2.28728734 1.83883881 0 0 Z " fill="#00024C" transform="translate(688,158)"/>
<path d="" fill="#000000" transform="translate(0,0)"/>
<path d="" fill="#000000" transform="translate(0,0)"/>
<path d="" fill="#000000" transform="translate(0,0)"/>
</svg>
