<?xml version="1.0" standalone="no"?>
<!DOCTYPE svg PUBLIC "-//W3C//DTD SVG 20010904//EN"
 "http://www.w3.org/TR/2001/REC-SVG-20010904/DTD/svg10.dtd">
<svg version="1.0" xmlns="http://www.w3.org/2000/svg"
 width="2481.000000pt" height="2481.000000pt" viewBox="0 0 2481.000000 2481.000000"
 preserveAspectRatio="xMidYMid meet">

<g transform="translate(0.000000,2481.000000) scale(0.100000,-0.100000)"
fill="#002870" stroke="none">
<path d="M11970 20079 c-2125 -120 -4096 -1110 -5465 -2746 -229 -273 -484
-630 -678 -950 -954 -1570 -1308 -3446 -996 -5283 325 -1913 1390 -3657 2951
-4830 1214 -912 2637 -1436 4158 -1530 213 -13 720 -13 925 0 1609 103 3082
669 4332 1666 305 243 662 581 925 874 1087 1212 1762 2740 1922 4350 49 495
49 1073 0 1555 -79 777 -269 1520 -575 2240 -87 205 -308 645 -425 845 -186
317 -424 664 -649 945 -336 418 -749 833 -1160 1165 -1389 1121 -3086 1718
-4865 1708 -140 0 -320 -5 -400 -9z m865 -443 c64 -27 67 -38 63 -288 -3 -199
-6 -229 -25 -280 l-21 -58 109 0 109 0 0 -75 0 -75 -670 0 -670 0 0 75 0 75
240 0 240 0 0 155 0 155 71 0 c78 0 126 -17 149 -52 10 -16 16 -60 18 -140 l4
-118 89 0 c81 0 89 2 101 23 9 15 14 86 16 240 l4 217 -416 0 -416 0 0 80 0
80 485 0 c396 0 492 -3 520 -14z m2067 -487 c134 -62 247 -115 251 -119 9 -8
-42 -120 -55 -120 -4 0 -71 29 -149 65 -78 36 -142 65 -144 65 -5 0 -288 -620
-284 -624 2 -1 59 -29 127 -60 104 -48 230 -92 238 -83 1 1 79 171 174 377 95
206 175 378 179 383 12 12 118 -42 146 -74 14 -18 25 -43 25 -60 0 -17 -29
-92 -64 -168 l-63 -138 52 -26 53 -26 82 179 82 179 57 -25 c31 -13 69 -38 85
-56 24 -26 28 -37 23 -72 -2 -25 -112 -274 -282 -641 -152 -330 -281 -608
-286 -617 -8 -16 -19 -13 -106 28 -53 24 -99 47 -101 49 -2 2 82 191 188 420
106 229 191 417 189 418 -17 10 -102 47 -103 45 -2 -2 -88 -189 -192 -415
-104 -227 -193 -413 -198 -413 -16 0 -195 84 -196 92 0 4 45 105 100 223 55
119 100 218 100 220 0 1 -21 6 -47 10 -64 9 -171 52 -323 128 -95 47 -130 70
-147 96 -42 63 -36 85 123 429 81 174 159 345 175 380 15 34 33 62 38 62 6 0
120 -50 253 -111z m-4862 56 c14 -14 45 -72 69 -130 24 -58 47 -105 52 -105 5
0 52 18 105 40 53 22 100 40 103 40 12 0 62 -133 53 -141 -4 -4 -47 -24 -97
-44 -49 -20 -94 -40 -99 -45 -5 -5 19 -75 54 -160 37 -89 59 -155 54 -160 -11
-11 -205 -92 -209 -88 -2 2 -73 173 -160 382 -100 242 -153 382 -147 388 5 5
38 20 73 34 74 28 112 25 149 -11z m-664 -161 c23 -11 40 -31 56 -64 l23 -48
130 53 c72 30 135 54 140 55 6 0 21 -28 35 -62 14 -35 26 -66 28 -69 2 -4 -34
-21 -78 -39 l-81 -33 59 -29 c184 -88 227 -315 92 -486 -132 -168 -410 -192
-553 -48 -82 82 -109 206 -69 318 l20 57 -50 -20 c-28 -11 -59 -24 -69 -29
-35 -19 -47 -10 -73 56 -15 37 -26 68 -24 69 2 2 59 26 128 55 69 28 128 54
133 59 4 4 -6 40 -23 81 -16 40 -30 74 -30 76 0 8 139 61 163 63 5 1 24 -6 43
-15z m3174 -281 c159 -44 280 -174 280 -303 0 -126 -119 -258 -276 -305 -217
-65 -467 22 -550 191 -128 261 201 513 546 417z m-2288 -414 c115 -25 192 -83
235 -177 21 -44 24 -65 21 -120 -16 -266 -346 -450 -595 -333 -113 54 -183
170 -170 283 19 159 164 305 341 343 78 17 103 18 168 4z m6885 -611 l103
-103 60 60 61 60 59 -62 c51 -52 60 -66 60 -98 0 -41 -18 -81 -49 -109 l-22
-20 106 -106 105 -106 -55 -54 -55 -54 -63 61 -62 62 -1 -52 c-3 -194 -173
-332 -368 -296 -126 23 -232 102 -288 217 -30 61 -33 74 -33 162 0 84 3 101
27 146 52 98 160 164 271 164 l51 0 -62 63 -62 62 52 53 c29 28 55 52 58 52 2
0 51 -46 107 -102z m-9361 -90 c91 -93 128 -138 150 -184 l29 -62 77 76 78 76
55 -54 55 -55 -195 -195 -195 -195 75 -75 75 -74 108 106 c109 108 139 126
190 113 16 -4 90 -69 192 -171 l165 -164 -85 -85 -85 -85 -137 137 -138 138
-273 -273 -272 -272 -55 55 -55 55 138 138 137 137 -75 75 -75 75 -193 -193
-192 -192 -55 55 -55 55 319 319 319 319 -24 41 c-29 49 -216 251 -232 251 -7
0 -133 -122 -282 -270 l-270 -270 -55 55 -55 56 325 324 c179 178 336 328 350
334 59 25 88 9 216 -121z m5019 101 c1210 -88 2380 -605 3263 -1442 466 -442
831 -928 1112 -1482 776 -1531 771 -3337 -14 -4860 -263 -509 -571 -931 -981
-1340 -429 -430 -872 -749 -1410 -1015 -614 -304 -1231 -478 -1930 -542 -296
-27 -800 -15 -1135 28 -775 98 -1560 388 -2225 822 -1312 855 -2190 2245
-2394 3789 -33 252 -44 418 -44 698 0 373 28 676 94 1015 256 1310 975 2459
2049 3272 619 468 1373 808 2135 963 500 102 966 131 1480 94z m5033 -572 c94
-95 89 -134 -35 -259 l-88 -88 83 -83 82 -83 -55 -54 -55 -55 -83 83 -82 82
-122 -122 -123 -123 -85 85 -85 85 292 292 c161 161 295 293 298 293 3 0 29
-24 58 -53z m-627 -680 c42 -53 49 -89 25 -135 -8 -15 -85 -97 -170 -182
l-156 -155 -85 85 -85 85 145 145 145 145 -272 272 -273 273 50 50 50 50 293
-292 c162 -161 312 -315 333 -341z m-10820 -927 l26 -12 -44 -106 c-24 -58
-40 -109 -36 -112 5 -4 106 -47 225 -96 120 -49 218 -93 218 -99 0 -24 -85
-215 -95 -212 -211 82 -895 375 -895 384 0 25 49 123 74 148 38 37 85 33 211
-20 l106 -44 23 52 c13 29 33 78 46 109 l23 57 46 -19 c25 -10 58 -23 72 -30z
m12500 -460 c209 -505 216 -528 169 -574 -28 -28 -617 -275 -715 -300 -32 -9
-79 -16 -103 -16 -50 0 -51 5 5 -124 18 -43 32 -80 31 -81 -14 -9 -139 -57
-142 -54 -7 9 -526 1268 -526 1277 0 8 118 62 134 62 2 0 20 -40 41 -90 21
-49 42 -90 48 -90 6 0 108 40 226 89 119 50 223 93 232 96 13 5 22 -9 43 -65
53 -145 40 -161 -214 -265 -102 -42 -189 -80 -193 -84 -4 -4 3 -34 17 -66 21
-46 29 -56 43 -51 10 4 116 48 236 98 120 49 222 86 226 82 19 -22 51 -117 51
-151 0 -74 -13 -82 -270 -188 -91 -37 -166 -69 -167 -70 -2 -1 9 -29 24 -63
29 -69 31 -69 113 -48 48 13 636 251 673 273 11 6 -19 88 -154 413 -93 223
-165 408 -161 412 14 14 127 56 133 50 4 -4 94 -216 200 -472z m-12939 -3 c16
-6 14 -14 -17 -87 -19 -45 -29 -79 -22 -76 220 92 414 -13 458 -248 35 -193
-116 -404 -312 -435 -136 -22 -277 59 -325 186 l-17 45 -32 -76 c-17 -41 -34
-78 -37 -81 -7 -7 -138 44 -138 54 0 4 25 67 55 140 l55 132 -38 16 c-20 8
-56 23 -79 33 l-42 19 25 63 c14 35 38 76 52 91 24 26 32 28 77 24 28 -3 61
-8 75 -12 23 -6 27 -1 54 67 17 40 42 101 57 135 l28 62 53 -23 c29 -12 61
-26 70 -29z m1193 -104 c36 -15 65 -31 65 -36 0 -24 -324 -785 -343 -805 -30
-33 -70 -52 -107 -52 -26 0 -206 67 -323 121 -33 15 -32 30 10 116 26 56 61
83 108 83 15 0 71 -19 126 -41 58 -24 104 -38 108 -33 5 5 71 159 146 342 76
182 139 332 141 332 2 0 33 -12 69 -27z m-1160 -2265 l63 -193 211 -3 c116 -1
211 -6 211 -10 0 -4 -74 -61 -165 -127 -91 -65 -165 -125 -165 -132 0 -7 27
-96 61 -199 33 -102 58 -188 56 -191 -3 -2 -80 50 -172 117 l-166 121 -26 -17
c-14 -9 -93 -65 -175 -125 -81 -60 -148 -105 -148 -101 0 4 29 95 64 202 35
107 62 198 60 201 -2 4 -78 60 -169 125 -90 66 -165 122 -165 127 0 4 96 7
214 7 l214 0 6 28 c15 58 120 372 124 368 2 -3 32 -92 67 -198z m12970 0 l63
-193 211 -3 c116 -1 211 -6 211 -10 0 -5 -74 -62 -165 -127 -91 -66 -165 -125
-165 -130 0 -6 29 -100 64 -208 35 -108 58 -193 52 -190 -6 4 -84 61 -174 126
-163 118 -164 118 -189 101 -14 -9 -93 -65 -175 -125 -81 -60 -148 -105 -148
-101 0 4 29 95 64 202 35 107 62 198 60 201 -2 4 -78 60 -169 125 -90 66 -165
122 -165 127 0 4 96 7 213 7 l212 0 64 200 c36 110 66 198 69 196 2 -3 32 -91
67 -198z m-381 -1797 l166 -189 113 -30 c61 -17 134 -37 161 -44 27 -7 51 -18
53 -25 6 -16 -22 -108 -33 -107 -5 1 -80 20 -166 44 l-157 42 -243 -88 c-134
-48 -246 -90 -251 -94 -4 -3 15 -14 43 -24 27 -10 50 -22 50 -27 0 -5 -16 -48
-35 -96 -19 -48 -35 -92 -35 -98 0 -7 136 -65 303 -129 166 -65 303 -119 304
-120 2 -2 -36 -109 -41 -113 -1 -1 -139 51 -306 117 -168 65 -308 116 -312
112 -3 -4 -21 -45 -38 -92 -18 -47 -36 -88 -39 -93 -10 -11 -113 34 -108 47
172 439 218 561 231 606 l15 55 172 60 c94 33 176 63 182 67 6 4 -31 52 -93
120 -57 62 -114 124 -127 138 -22 25 -22 26 -6 88 8 34 19 62 23 62 5 0 83
-85 174 -189z m-12129 53 c9 -31 13 -60 8 -64 -4 -5 -86 -30 -181 -56 -158
-43 -171 -49 -150 -60 13 -7 117 -67 233 -132 l210 -119 21 -76 c12 -42 20
-77 18 -77 -1 0 -91 52 -200 115 -108 63 -198 115 -200 115 -2 0 -78 -98 -169
-217 -91 -120 -169 -219 -174 -221 -4 -1 -15 29 -25 68 l-19 71 75 97 c179
232 201 262 195 269 -4 3 -34 23 -68 43 l-62 37 -116 -33 c-64 -18 -119 -33
-123 -34 -8 0 -42 109 -36 115 2 2 170 51 373 108 204 58 371 105 372 106 1 0
9 -24 18 -55z m60 -699 c114 -30 195 -99 249 -215 27 -58 31 -75 31 -155 0
-82 -3 -97 -33 -157 -66 -135 -204 -224 -362 -235 -176 -12 -328 94 -385 266
-26 79 -18 200 19 275 52 107 154 185 286 220 72 19 123 19 195 1z m11518
-456 c23 -12 43 -23 45 -24 2 -2 -8 -26 -22 -54 -14 -28 -26 -53 -26 -56 0 -5
475 -245 485 -245 2 0 16 23 30 50 14 28 30 50 35 50 5 0 29 -10 54 -22 l44
-21 -84 -169 -84 -168 -50 25 -50 25 27 55 c15 30 25 56 22 59 -2 2 -113 58
-246 125 l-243 121 -26 -53 c-15 -28 -28 -53 -29 -55 -2 -2 -26 8 -54 22 l-51
26 82 165 c46 91 86 165 91 165 4 0 27 -10 50 -21z m-10968 -403 c65 -114 79
-148 83 -192 9 -105 -42 -199 -132 -246 -58 -31 -155 -31 -213 -1 l-43 22 -87
-149 c-49 -82 -91 -150 -95 -150 -8 0 -68 103 -68 118 0 6 38 74 84 150 l84
139 -44 76 -44 76 -122 -70 c-67 -38 -126 -68 -132 -65 -6 2 -22 25 -35 51
-21 39 -23 48 -10 55 8 5 160 92 338 194 l325 185 16 -27 c9 -15 52 -89 95
-166z m10813 -73 c6 -10 13 -37 17 -60 l7 -42 -39 -7 c-105 -19 -176 -95 -176
-188 0 -32 6 -45 32 -68 57 -51 106 -33 228 83 108 104 206 129 297 75 25 -15
58 -44 71 -65 108 -163 -43 -438 -256 -467 l-47 -6 -17 57 c-9 31 -14 59 -12
61 2 2 28 8 57 14 113 21 188 98 198 200 4 42 1 52 -21 74 -31 31 -82 35 -129
10 -17 -9 -64 -47 -103 -84 -39 -37 -85 -75 -102 -84 -74 -38 -158 -29 -230
23 -73 53 -99 149 -68 251 31 104 124 202 212 226 64 17 71 17 81 -3z m-10412
-554 c76 -105 138 -194 137 -198 -2 -3 -22 -21 -46 -38 l-44 -33 -108 150
c-68 93 -113 146 -120 142 -46 -28 -145 -105 -145 -113 0 -4 39 -61 86 -126
l86 -118 -39 -32 c-21 -18 -43 -33 -50 -33 -7 0 -51 54 -99 120 -52 73 -91
117 -98 113 -29 -17 -166 -118 -166 -123 0 -3 48 -70 105 -149 114 -157 113
-152 47 -193 l-35 -21 -19 23 c-47 58 -270 372 -266 375 21 21 625 452 629
449 3 -2 69 -90 145 -195z m10073 -35 c104 -30 182 -150 168 -255 -3 -22 -2
-39 1 -39 42 -3 333 -48 338 -53 5 -5 -24 -47 -75 -109 -4 -3 -73 4 -156 18
-82 13 -157 24 -167 24 -13 0 -118 -118 -118 -133 0 -2 47 -41 104 -86 58 -45
108 -86 111 -92 4 -5 -6 -26 -22 -46 -15 -20 -31 -41 -35 -46 -8 -13 -620 464
-614 479 10 27 221 286 248 305 34 24 100 47 139 48 14 1 49 -6 78 -15z
m-9653 -479 l37 -45 -183 -363 c-100 -199 -186 -365 -189 -369 -4 -5 -27 13
-51 38 l-45 45 48 90 c57 106 64 85 -76 234 l-94 100 -94 -38 -94 -37 -45 46
-44 47 54 21 c30 11 201 77 380 147 179 70 333 127 342 128 9 1 33 -19 54 -44z
m9097 -130 c-43 -44 -100 -104 -128 -133 l-49 -52 69 -70 70 -70 110 110 110
110 43 -42 42 -43 -107 -107 -108 -108 75 -75 c41 -41 78 -75 81 -75 4 0 62
56 130 125 67 69 127 125 134 125 15 0 78 -66 74 -78 -2 -5 -79 -86 -170 -180
l-166 -170 -274 266 c-151 146 -275 270 -277 274 -2 4 72 87 165 183 l168 175
42 -42 43 -42 -77 -81z m-274 -645 c68 -215 121 -397 118 -404 -3 -7 -23 -27
-44 -44 l-40 -31 -368 202 -368 201 49 43 c27 23 54 43 59 43 11 0 540 -294
563 -312 6 -6 12 -9 12 -7 0 2 -50 141 -110 309 l-108 305 46 42 c26 23 52 42
58 43 5 0 65 -176 133 -390z m-8140 131 c28 -25 32 -34 27 -58 -18 -70 -248
-763 -254 -763 -4 0 -27 18 -52 39 l-45 39 32 98 c18 54 31 98 30 99 -1 1 -53
43 -116 94 -63 51 -120 95 -127 98 -7 2 -48 -16 -92 -41 -43 -25 -85 -46 -92
-46 -14 0 -85 60 -85 72 0 4 160 100 355 211 251 144 359 201 370 196 8 -5 30
-22 49 -38z m7420 -273 c17 -23 31 -45 31 -49 0 -4 -22 -21 -50 -39 -30 -19
-47 -37 -43 -44 16 -26 286 -432 293 -440 5 -4 29 6 53 23 25 17 50 31 55 31
9 0 62 -73 62 -85 0 -6 -297 -205 -307 -205 -5 0 -14 10 -22 23 -8 12 -20 32
-28 44 -13 20 -11 23 34 54 26 18 50 34 52 36 3 2 -65 106 -149 232 l-154 229
-40 -27 c-23 -15 -46 -31 -53 -35 -14 -8 -79 82 -67 94 9 8 297 200 301 200 1
0 15 -19 32 -42z m-6862 -129 c103 -67 190 -123 191 -124 2 -2 -10 -24 -28
-50 -21 -30 -37 -44 -46 -41 -8 3 -78 46 -154 96 -77 49 -142 90 -144 90 -5 0
-106 -156 -106 -163 0 -3 56 -42 125 -86 69 -45 125 -83 125 -86 0 -8 -55 -95
-60 -95 -3 0 -46 26 -95 58 -50 32 -107 68 -127 81 l-38 22 -55 -84 c-30 -47
-55 -90 -55 -95 0 -6 68 -54 150 -107 l150 -98 -22 -36 c-42 -70 -27 -74 -250
70 l-206 132 17 27 c9 14 103 162 210 328 167 258 197 300 212 292 9 -6 102
-64 206 -131z m6602 -468 c94 -180 171 -330 171 -332 0 -3 -22 -16 -50 -29
l-49 -23 -326 152 c-180 84 -328 151 -330 149 -2 -2 23 -46 56 -98 60 -96 223
-399 217 -405 -2 -1 -27 -14 -55 -29 l-52 -26 -17 32 c-9 18 -90 173 -180 345
-90 171 -164 313 -164 316 0 2 22 14 49 27 l50 23 158 -76 c87 -42 238 -114
337 -161 161 -78 177 -84 160 -59 -58 89 -278 493 -271 499 1 1 25 13 52 27
44 22 51 24 62 11 6 -9 88 -163 182 -343z m-6120 190 c126 -64 166 -89 198
-125 132 -150 37 -388 -158 -399 l-41 -2 6 -50 c10 -94 19 -305 12 -305 -4 0
-33 13 -65 29 l-58 30 -6 68 c-4 37 -7 97 -7 133 0 127 -3 132 -86 173 -41 20
-76 37 -77 37 -1 0 -31 -58 -67 -129 l-63 -129 -54 26 c-29 14 -53 30 -53 34
0 18 341 688 350 688 6 0 82 -36 169 -79z m5297 -431 c46 -124 88 -249 94
-278 39 -180 -119 -354 -320 -354 -110 -1 -205 50 -255 135 -33 58 -197 509
-188 517 9 8 106 41 108 37 1 -1 39 -104 84 -229 46 -125 94 -243 107 -261 71
-106 245 -99 315 11 48 76 43 112 -56 382 -47 128 -84 234 -82 236 8 9 83 33
96 31 8 -1 47 -92 97 -227z m-4530 110 c156 -53 254 -193 254 -362 -1 -168
-98 -322 -246 -390 -40 -19 -66 -23 -144 -23 -86 0 -101 3 -162 32 -82 39
-145 100 -183 177 -52 106 -45 258 17 380 25 48 102 132 143 154 100 55 217
67 321 32z m3544 -236 c7 -30 10 -57 8 -59 -1 -1 -81 -19 -177 -39 -96 -19
-175 -37 -177 -38 -3 -3 34 -190 39 -194 1 -1 63 11 137 27 74 15 142 29 151
29 19 0 43 -109 25 -115 -6 -2 -73 -16 -148 -31 -110 -21 -138 -30 -138 -43 1
-24 37 -191 43 -197 2 -3 82 11 178 31 95 19 176 32 180 28 4 -5 11 -31 14
-59 l7 -50 -236 -48 c-130 -27 -239 -47 -241 -44 -8 7 -156 740 -152 751 2 8
410 102 464 106 6 1 17 -24 23 -55z m-2787 20 c23 -8 59 -26 79 -41 38 -26 98
-105 98 -129 0 -7 -22 -26 -50 -43 l-50 -31 -16 33 c-41 81 -97 117 -183 117
-72 0 -109 -25 -117 -80 -8 -57 21 -90 127 -145 110 -57 172 -111 195 -171 36
-96 -9 -206 -106 -257 -51 -27 -61 -29 -145 -25 -140 6 -242 63 -298 166 l-28
51 47 35 c26 20 50 36 54 36 3 0 14 -15 22 -34 45 -93 124 -145 221 -146 51 0
62 4 88 29 38 38 39 87 4 129 -14 16 -62 49 -107 72 -161 83 -204 139 -196
255 6 101 66 169 171 196 41 10 136 2 190 -17z m508 -94 c188 -22 203 -26 253
-71 126 -110 105 -310 -40 -395 -53 -31 -92 -34 -240 -20 l-91 8 -12 -118
c-19 -188 -13 -175 -79 -168 -31 4 -59 8 -61 10 -3 3 76 711 85 752 2 12 8 22
12 22 4 0 82 -9 173 -20z m1600 -39 c25 -12 60 -34 78 -49 l32 -27 -36 -46
-36 -47 -56 34 c-129 77 -271 45 -348 -80 -28 -46 -30 -56 -30 -145 0 -88 3
-101 30 -150 34 -62 73 -95 140 -117 88 -30 206 -4 276 63 l26 24 32 -39 c17
-22 31 -47 31 -56 0 -24 -87 -83 -160 -108 -144 -49 -290 -20 -387 78 -154
154 -164 413 -22 569 91 99 158 126 294 122 67 -3 101 -9 136 -26z m-720 -396
c76 -209 139 -383 139 -387 0 -5 -29 -8 -63 -8 l-64 0 -32 95 -33 95 -67 0
c-36 0 -109 3 -161 6 l-96 7 -38 -97 -38 -96 -64 0 -64 0 13 33 c8 17 78 191
157 385 l143 353 64 -3 65 -3 139 -380z"/>
<path d="M9412 18664 c-34 -24 -55 -73 -55 -130 0 -122 123 -226 212 -179 109
56 90 248 -31 311 -36 19 -98 18 -126 -2z"/>
<path d="M12337 18615 c-52 -18 -83 -49 -103 -101 -31 -81 7 -167 90 -205 69
-31 148 -18 204 34 91 85 61 221 -60 272 -45 18 -81 19 -131 0z"/>
<path d="M10086 18180 c-62 -19 -106 -83 -106 -155 0 -124 115 -205 223 -157
98 43 125 168 56 256 -38 48 -116 74 -173 56z"/>
<path d="M17001 17398 c-110 -54 -145 -204 -63 -268 17 -14 40 -20 75 -20 104
0 187 84 187 189 0 47 -4 57 -34 87 -28 28 -41 34 -77 34 -25 0 -63 -9 -88
-22z"/>
<path d="M15468 16189 l-196 -171 -48 -191 c-82 -334 -190 -603 -349 -878
-230 -396 -512 -667 -890 -860 -77 -39 -142 -73 -144 -75 -2 -1 6 -14 17 -29
62 -79 45 -221 -41 -337 l-21 -28 32 -33 c18 -18 32 -38 32 -45 0 -7 8 -12 18
-12 58 0 657 421 867 609 231 206 414 449 540 714 166 349 258 658 334 1117
26 157 52 379 46 388 -1 1 -90 -75 -197 -169z"/>
<path d="M15233 16266 c-33 -67 -195 -276 -392 -506 l-176 -205 -28 -94 c-53
-177 -185 -482 -271 -628 -115 -192 -313 -429 -438 -524 -46 -34 -91 -76 -101
-93 -11 -17 -47 -60 -80 -94 l-62 -64 45 7 c69 11 126 32 240 91 428 218 718
532 984 1065 89 178 151 351 210 586 36 143 100 477 94 494 -2 6 -13 -10 -25
-35z"/>
<path d="M14615 15915 c-27 -35 -147 -184 -266 -331 l-216 -269 0 -85 c-1
-189 -106 -448 -271 -668 l-54 -72 24 -19 c13 -11 30 -43 38 -72 l15 -52 109
114 c307 321 493 670 615 1154 36 142 64 303 59 337 -3 23 -7 20 -53 -37z"/>
<path d="M15717 15755 c-98 -146 -99 -149 -132 -279 -61 -242 -133 -429 -248
-646 -109 -207 -290 -463 -426 -604 -92 -94 -367 -335 -516 -451 -116 -91
-341 -241 -427 -285 l-68 -35 0 -45 c0 -61 -25 -155 -52 -192 l-21 -30 24 7
c153 46 463 182 594 260 119 71 290 192 396 281 74 62 269 269 395 420 122
147 286 449 402 741 85 214 116 318 142 468 21 121 43 412 38 489 l-3 49 -98
-148z"/>
<path d="M9010 15816 c0 -3 34 -98 76 -213 62 -169 84 -216 116 -253 561 -645
1140 -1617 1369 -2297 30 -92 58 -155 78 -180 50 -63 125 -194 177 -311 27
-61 51 -112 54 -112 3 0 16 60 29 134 21 118 22 141 12 202 -25 143 -192 607
-287 797 -113 225 -390 681 -614 1007 -80 118 -198 292 -261 385 -118 176
-155 222 -373 465 -232 256 -376 400 -376 376z"/>
<path d="M13922 15637 c18 -149 -12 -393 -68 -549 -58 -163 -169 -354 -266
-460 l-44 -47 -2 -110 c-1 -61 0 -111 4 -111 16 0 129 97 197 170 139 147 248
340 299 528 17 63 21 107 21 237 1 141 -2 167 -21 219 -25 66 -70 141 -105
174 l-23 22 8 -73z"/>
<path d="M9490 15586 c0 -24 195 -389 250 -466 311 -441 809 -1233 918 -1460
168 -351 227 -505 298 -780 20 -75 36 -115 56 -138 35 -41 75 -121 119 -235
38 -102 43 -98 53 38 8 107 -8 209 -60 398 -34 124 -148 471 -213 648 -57 154
-192 417 -404 784 -109 189 -548 768 -725 956 -97 102 -292 273 -292 255z"/>
<path d="M8913 15558 c16 -41 202 -458 240 -538 232 -496 229 -490 462 -840
286 -430 366 -564 534 -900 83 -165 152 -290 173 -313 37 -40 109 -169 163
-294 l33 -76 6 39 c3 22 10 82 16 134 l11 95 -66 195 c-90 264 -168 467 -223
575 -119 238 -353 642 -500 863 -197 293 -553 759 -720 939 -118 127 -140 148
-129 121z"/>
<path d="M10097 15109 c44 -97 75 -146 243 -374 140 -190 444 -702 528 -890
59 -131 192 -484 240 -636 38 -117 83 -297 112 -444 12 -60 30 -121 40 -135
33 -47 83 -155 121 -260 l38 -105 0 59 c2 146 -80 542 -162 789 -30 89 -89
250 -132 357 -222 559 -687 1343 -981 1652 -96 100 -98 100 -47 -13z"/>
<path d="M15741 14804 c-129 -156 -166 -209 -233 -332 -112 -205 -263 -422
-391 -559 -114 -121 -410 -369 -554 -463 -173 -114 -523 -265 -704 -304 -25
-5 -26 -9 -22 -51 5 -40 -5 -102 -23 -150 -8 -21 -47 -31 339 90 341 106 529
178 687 261 161 85 322 197 414 287 131 130 336 417 438 617 63 123 162 449
187 615 14 98 22 175 18 175 -1 0 -72 -84 -156 -186z"/>
<path d="M13485 14893 c-33 -242 -180 -562 -437 -946 -100 -149 -320 -441
-429 -570 -219 -257 -279 -393 -279 -629 0 -115 15 -220 70 -499 71 -358 85
-525 54 -658 -27 -122 -88 -192 -200 -233 -52 -20 -87 -23 -314 -28 -183 -5
-268 -11 -300 -22 l-45 -14 76 -7 c101 -10 256 -48 348 -87 74 -30 201 -97
201 -105 0 -12 -129 -39 -355 -74 -264 -42 -345 -61 -365 -87 -24 -28 9 -43
124 -58 60 -8 113 -19 119 -25 17 -17 -68 -87 -158 -132 -84 -41 -189 -69
-267 -69 l-46 0 15 -57 c20 -77 14 -189 -11 -228 l-19 -29 -21 29 c-88 126
-259 213 -401 203 l-50 -3 34 -18 c63 -35 122 -100 161 -178 57 -112 80 -189
80 -264 0 -65 0 -65 -28 -65 -52 0 -135 -31 -163 -61 -33 -35 -42 -78 -28
-134 l11 -44 37 40 c53 55 89 54 148 -5 l44 -44 -21 -53 c-46 -117 -150 -233
-282 -311 -62 -37 -81 -43 -140 -46 -91 -6 -152 24 -237 113 -55 59 -65 65
-101 65 -21 0 -55 -7 -74 -17 l-35 -16 -88 83 c-48 45 -101 91 -118 101 -59
37 -144 16 -192 -47 -14 -19 -31 -34 -37 -34 -26 0 -61 -51 -61 -88 0 -40 32
-94 66 -112 17 -10 19 -7 19 33 0 60 16 71 106 73 63 1 81 -3 136 -30 75 -37
82 -58 45 -133 -30 -58 -42 -127 -33 -188 6 -34 17 -54 43 -80 20 -19 39 -35
43 -35 4 0 5 19 3 43 -3 26 1 57 10 80 16 36 67 77 98 77 8 0 41 -20 72 -44
54 -42 87 -54 189 -71 52 -8 138 -90 138 -131 0 -48 -35 -93 -93 -119 l-52
-23 28 -11 c38 -15 71 -14 112 3 45 19 120 89 135 127 18 43 -1 100 -52 155
-40 44 -41 44 -22 66 24 27 111 68 145 68 29 0 65 -26 149 -108 89 -87 163
-133 223 -139 65 -7 174 9 294 43 l91 26 44 -26 c69 -40 167 -59 308 -60 69 0
142 5 163 11 l38 12 -7 -173 c-6 -158 -5 -175 13 -216 41 -94 141 -158 261
-168 65 -5 65 -5 59 19 -4 13 -7 34 -7 45 0 17 -13 26 -60 43 -66 24 -123 68
-146 112 -21 42 -17 44 16 10 30 -30 123 -71 160 -71 25 0 25 2 0 290 -10 123
-18 226 -16 227 2 2 18 -54 36 -124 60 -233 147 -454 217 -548 16 -22 54 -53
84 -70 47 -26 64 -29 134 -30 58 0 98 6 145 23 96 33 95 31 64 88 -15 27 -28
50 -29 52 -1 1 -21 -5 -45 -13 -58 -21 -146 -19 -195 4 -36 16 -119 91 -102
91 3 0 26 -10 49 -22 28 -15 66 -24 108 -26 68 -4 150 12 150 28 0 6 -85 175
-190 377 -104 202 -190 370 -190 372 0 2 103 -151 228 -340 244 -368 276 -405
386 -459 149 -72 350 -54 556 50 127 65 125 60 56 122 -32 29 -65 57 -72 61
-9 5 -39 -7 -81 -33 -141 -85 -302 -104 -422 -49 l-53 24 106 -3 c86 -3 119 0
175 17 66 20 191 93 191 112 0 5 -161 151 -357 325 -197 174 -371 330 -388
347 -32 32 -14 18 435 -328 164 -126 325 -242 363 -261 152 -77 369 -95 516
-44 81 29 197 106 254 170 46 51 122 159 115 164 -1 2 -42 18 -91 35 l-87 32
-78 -78 c-137 -139 -302 -196 -464 -161 -40 9 -88 22 -106 30 -31 12 -23 13
90 13 114 0 127 2 183 28 33 15 83 45 111 67 58 44 131 137 118 150 -5 4 -273
104 -596 221 -323 117 -586 214 -584 216 3 3 658 -151 985 -231 213 -53 348
-69 526 -63 128 4 161 8 223 30 142 49 243 131 305 244 31 58 67 188 67 243
l0 37 -92 7 c-150 10 -145 11 -152 -31 -17 -105 -116 -237 -215 -287 -58 -30
-138 -53 -211 -61 l-55 -6 60 33 c77 42 164 129 194 193 23 49 49 170 39 181
-3 3 -415 39 -914 80 -690 57 -912 78 -923 89 -12 12 -12 21 -2 55 19 63 50
76 189 84 449 25 585 42 742 91 177 56 308 132 398 230 46 50 67 84 45 73
-156 -79 -291 -127 -455 -160 -99 -20 -143 -23 -350 -23 -182 0 -238 -3 -238
-12 0 -7 -13 -27 -29 -45 -27 -30 -35 -33 -84 -32 -44 0 -73 9 -148 46 -175
85 -270 175 -349 335 -55 111 -66 177 -51 307 18 159 36 228 100 381 97 234
114 294 114 410 0 135 -13 187 -101 415 -75 192 -76 197 -76 285 0 127 21 173
167 368 66 89 149 205 183 257 228 349 377 743 429 1135 15 111 23 470 11 482
-2 3 -7 -17 -11 -44z m-2254 -4973 c56 -27 108 -50 115 -50 30 0 64 -24 64
-45 0 -57 -43 -52 -176 20 -47 25 -105 48 -129 52 -25 3 -45 10 -45 15 0 12
47 58 59 58 5 0 56 -22 112 -50z m489 -75 c36 -37 35 -38 -21 -35 -55 2 -146
-28 -168 -56 -10 -13 -22 -24 -27 -24 -18 0 -44 35 -44 61 0 37 28 55 111 73
99 22 111 20 149 -19z m-263 -141 c3 -8 -8 -45 -25 -81 -27 -59 -31 -63 -41
-45 -16 30 -13 94 5 120 18 25 52 29 61 6z m207 -162 c7 -12 -59 -200 -79
-222 -10 -11 -36 -25 -57 -32 -46 -14 -67 1 -71 47 -2 24 3 29 30 37 37 10 83
62 102 115 8 21 18 44 23 51 12 13 44 16 52 4z m-1329 -32 c3 -6 -4 -10 -17
-10 -34 0 -85 -31 -109 -65 l-21 -30 6 35 c10 52 41 80 92 80 24 0 46 -4 49
-10z m977 -119 c18 -10 47 -22 65 -26 39 -8 56 -27 51 -57 -2 -18 -10 -24 -37
-26 -39 -4 -85 32 -107 85 -22 51 -20 52 28 24z"/>
<path d="M8961 14900 c6 -14 67 -126 135 -250 120 -219 206 -417 279 -640 l28
-85 154 -159 c85 -88 181 -195 213 -237 105 -139 222 -341 306 -525 76 -167
174 -418 174 -446 0 -6 2 -9 5 -6 3 3 1 93 -4 200 l-10 196 -65 140 c-136 294
-222 447 -517 921 -65 104 -366 513 -514 696 -96 119 -201 231 -184 195z"/>
<path d="M10620 14618 c14 -68 28 -100 77 -178 188 -298 413 -751 511 -1030
22 -63 59 -164 82 -225 50 -132 98 -326 144 -583 l34 -191 41 -47 c23 -27 65
-93 93 -148 l50 -101 -6 75 c-10 113 -54 387 -87 548 -50 241 -121 453 -276
827 -112 271 -282 587 -467 870 -67 102 -188 256 -206 263 -4 2 0 -34 10 -80z"/>
<path d="M13700 14405 c-13 -14 -56 -50 -95 -81 l-72 -56 -18 -77 c-10 -42
-33 -120 -52 -174 -19 -54 -33 -100 -31 -102 6 -6 136 99 201 163 77 76 144
165 158 211 15 51 -2 106 -40 126 -26 13 -30 12 -51 -10z"/>
<path d="M10960 14400 c0 -3 6 -37 14 -76 9 -52 24 -87 53 -130 305 -452 549
-1132 627 -1749 14 -110 18 -161 31 -345 2 -36 13 -92 24 -125 34 -108 54
-252 55 -412 l1 -151 55 -11 c93 -19 221 -24 300 -12 78 12 178 52 204 80 14
15 13 17 -16 19 -132 10 -260 156 -317 362 -29 102 -114 467 -146 620 -148
716 -452 1386 -872 1920 -7 8 -13 13 -13 10z"/>
<path d="M9166 14009 c4 -8 36 -53 70 -100 144 -199 331 -518 400 -681 64
-153 96 -252 154 -469 73 -278 129 -419 242 -607 144 -239 360 -465 590 -617
48 -31 63 -36 90 -31 72 15 249 24 356 18 102 -6 112 -5 112 10 0 29 -49 149
-80 198 -75 117 -238 243 -400 310 -105 44 -213 115 -304 202 -83 77 -97 97
-143 190 -28 56 -85 191 -127 298 -161 408 -219 524 -367 725 -100 135 -348
384 -479 481 -113 84 -126 92 -114 73z"/>
<path d="M13602 13950 c-29 -28 -95 -79 -145 -115 -82 -59 -94 -72 -115 -122
-30 -70 -106 -215 -144 -270 -15 -23 -28 -43 -28 -46 0 -2 63 13 139 33 108
28 158 47 222 85 160 92 255 179 277 254 24 80 12 151 -35 197 -28 28 -41 34
-76 34 -36 -1 -49 -7 -95 -50z"/>
<path d="M15745 13942 c-146 -78 -209 -123 -257 -186 -219 -286 -515 -493
-943 -659 -77 -30 -185 -69 -240 -85 -119 -36 -445 -122 -462 -122 -18 0 -16
-15 3 -31 23 -19 44 -64 44 -95 l0 -27 81 7 c114 9 322 49 470 90 408 112 860
368 1096 620 60 64 99 120 161 228 125 221 158 299 124 298 -4 0 -38 -17 -77
-38z"/>
<path d="M13724 13559 c-13 -22 -156 -108 -231 -139 -71 -30 -254 -80 -343
-94 -31 -5 -37 -11 -52 -54 -21 -57 -84 -157 -146 -229 -25 -30 -38 -53 -31
-53 42 0 333 55 444 85 411 107 555 269 409 460 -28 37 -38 42 -50 24z"/>
<path d="M15443 13247 c-64 -17 -96 -33 -150 -73 -165 -123 -428 -263 -606
-322 -235 -78 -589 -152 -727 -152 -42 0 -70 -20 -70 -51 0 -10 -16 -36 -35
-58 -34 -38 -35 -38 -15 -56 18 -16 32 -17 132 -11 318 20 755 109 1005 205
139 54 304 169 395 274 82 96 190 268 166 266 -7 0 -50 -11 -95 -22z"/>
<path d="M7970 13125 l0 -55 -125 0 -125 0 0 -315 0 -315 -30 0 -30 0 0 -75 0
-75 30 0 30 0 0 -330 0 -330 90 0 90 0 0 330 0 330 35 0 35 0 0 -330 0 -330
90 0 90 0 0 330 0 330 35 0 35 0 0 -330 0 -330 90 0 90 0 0 330 0 330 30 0 30
0 0 75 0 75 -30 0 -30 0 0 315 0 315 -125 0 -125 0 0 55 0 55 -90 0 -90 0 0
-55z m0 -445 l0 -240 -35 0 -35 0 0 240 0 240 35 0 35 0 0 -240z m250 0 l0
-240 -35 0 -35 0 0 240 0 240 35 0 35 0 0 -240z"/>
<path d="M8720 13125 l0 -55 -115 0 -115 0 0 -75 0 -75 325 0 325 0 0 75 0 75
-120 0 -120 0 0 55 0 55 -90 0 -90 0 0 -55z"/>
<path d="M16390 13125 l0 -55 -285 0 -285 0 0 -720 0 -721 88 3 87 3 3 643 2
642 100 0 100 0 0 -645 0 -645 90 0 90 0 0 645 0 645 100 0 100 0 0 -645 0
-645 90 0 90 0 0 645 0 645 100 0 100 0 2 -642 3 -643 88 -3 87 -3 0 721 0
720 -285 0 -285 0 0 55 0 55 -90 0 -90 0 0 -55z"/>
<path d="M13720 13118 c-219 -95 -587 -178 -794 -178 -57 0 -65 -3 -96 -32
-18 -18 -41 -51 -50 -73 -21 -47 -34 -131 -23 -138 22 -14 441 38 637 79 222
47 345 105 380 179 19 40 19 156 1 174 -6 5 -28 1 -55 -11z"/>
<path d="M10310 12800 c0 -36 3 -143 7 -239 l6 -174 69 -76 c78 -86 240 -196
246 -167 6 27 -106 292 -209 496 -54 107 -103 202 -108 210 -8 11 -11 -2 -11
-50z"/>
<path d="M10590 12815 c-1 -11 -7 -89 -13 -173 l-13 -153 73 -182 73 -182 77
-34 c42 -19 99 -52 126 -73 28 -20 53 -36 55 -33 5 5 -110 343 -157 461 -34
85 -157 306 -201 364 -18 23 -20 23 -20 5z"/>
<path d="M13701 12799 c-151 -71 -453 -124 -820 -145 l-123 -7 5 -32 c3 -17
16 -58 29 -91 l23 -59 225 3 c347 3 605 37 710 91 59 30 110 128 96 184 -7 31
-53 87 -69 86 -7 0 -41 -14 -76 -30z"/>
<path d="M15111 12739 c-129 -67 -231 -104 -406 -149 -268 -70 -531 -110 -717
-111 l-120 0 7 -38 c8 -47 -11 -95 -53 -135 l-31 -29 35 -23 c42 -29 83 -30
233 -9 224 33 692 148 850 209 155 60 327 153 359 194 31 39 55 83 66 120 7
21 5 22 -61 21 -60 -1 -78 -7 -162 -50z"/>
<path d="M8490 12190 l0 -560 90 0 90 0 0 485 0 485 145 0 145 0 0 -485 0
-486 88 3 87 3 3 558 2 557 -325 0 -325 0 0 -560z"/>
<path d="M10962 12653 c-6 -27 -21 -103 -33 -171 l-23 -122 42 -128 c23 -70
51 -164 61 -210 16 -68 27 -90 61 -130 55 -62 126 -208 147 -304 18 -80 25
-88 81 -88 20 0 22 4 22 63 0 204 -145 740 -275 1013 -29 61 -57 114 -63 118
-6 4 -14 -12 -20 -41z"/>
<path d="M11216 12430 l-6 -140 50 -159 c61 -198 86 -319 100 -485 5 -71 10
-135 10 -141 0 -14 18 -20 94 -31 l49 -7 -6 138 c-10 209 -41 400 -88 540 -34
103 -180 425 -192 425 -2 0 -7 -63 -11 -140z"/>
<path d="M13738 12495 c-89 -49 -329 -77 -655 -77 -134 0 -243 -1 -243 -2 0 0
16 -39 35 -86 19 -47 35 -93 35 -102 0 -29 42 -32 279 -19 406 21 591 72 629
173 13 32 12 40 -6 82 -22 49 -32 53 -74 31z"/>
<path d="M15155 12488 c-286 -151 -703 -266 -1120 -308 -159 -16 -152 -13
-160 -62 -10 -56 -30 -95 -72 -139 l-35 -36 28 -6 c28 -5 195 6 329 23 128 16
420 93 550 145 112 45 300 143 420 220 44 28 58 45 84 99 45 95 43 99 -24 64z"/>
<path d="M11460 12278 c0 -67 7 -112 29 -191 43 -153 62 -283 70 -466 l6 -165
55 -12 c97 -23 90 -31 90 114 0 204 -34 385 -105 557 -35 84 -90 184 -124 226
l-20 24 -1 -87z"/>
<path d="M14985 12203 c-167 -94 -332 -169 -490 -221 -222 -74 -270 -82 -511
-89 l-212 -6 10 -29 c11 -30 7 -90 -7 -122 -8 -18 -2 -19 151 -14 119 4 191
12 289 33 271 57 482 130 622 216 55 34 91 68 157 146 86 103 113 143 99 143
-5 0 -53 -25 -108 -57z"/>
<path d="M13710 12228 c-85 -43 -307 -68 -599 -68 -180 0 -193 -1 -186 -17 3
-10 9 -55 12 -101 3 -45 9 -85 13 -87 3 -2 93 -9 198 -15 349 -21 597 17 656
102 26 36 20 98 -13 150 -16 25 -33 48 -38 50 -4 2 -24 -4 -43 -14z"/>
<path d="M14855 11922 c-142 -81 -287 -132 -556 -196 -153 -36 -243 -46 -413
-46 -139 0 -155 -2 -170 -19 -10 -11 -31 -23 -46 -26 l-28 -6 33 -49 c18 -27
36 -64 40 -81 l7 -32 162 6 c264 9 501 69 741 187 169 83 211 117 259 213 22
42 37 79 35 81 -2 1 -31 -13 -64 -32z"/>
<path d="M13655 11907 c-87 -28 -390 -35 -572 -13 -73 9 -136 16 -141 16 -5 0
-15 -26 -22 -57 -7 -32 -19 -70 -26 -85 -8 -15 -14 -29 -14 -32 0 -6 156 -41
275 -62 144 -25 366 -30 445 -10 77 20 104 36 131 79 23 36 21 116 -3 159
l-13 24 -60 -19z"/>
<path d="M12860 11664 c-6 -14 -20 -48 -31 -75 -21 -48 -21 -50 -4 -69 40 -45
177 -93 375 -132 154 -30 391 -33 433 -5 56 36 53 99 -8 186 l-26 39 -217 5
c-218 4 -363 24 -472 62 -40 14 -41 14 -50 -11z"/>
<path d="M14686 11619 c-145 -71 -357 -145 -511 -178 -123 -27 -306 -44 -388
-37 l-68 6 -38 -40 c-25 -26 -47 -40 -64 -40 l-26 0 35 -66 c19 -36 34 -76 34
-90 0 -23 3 -24 58 -24 126 0 333 45 517 111 101 36 379 175 468 232 48 32 63
49 93 108 19 39 34 74 32 78 -2 4 -66 -23 -142 -60z"/>
<path d="M12769 11464 c-16 -41 -39 -126 -39 -146 0 -19 124 -70 375 -153 242
-81 399 -104 465 -70 44 23 42 81 -5 156 l-35 56 -97 7 c-138 10 -283 33 -390
61 -97 25 -215 75 -245 102 -16 15 -18 14 -29 -13z"/>
<path d="M10778 11459 c-376 -31 -684 -151 -859 -336 -89 -93 -119 -168 -99
-243 15 -57 56 -81 130 -78 54 2 55 2 58 -28 10 -102 60 -203 129 -263 65 -58
125 -75 240 -69 94 5 96 6 236 77 104 53 160 75 208 83 132 21 256 -22 371
-130 l67 -64 7 28 c10 38 -11 141 -42 209 -33 71 -26 77 71 69 91 -8 196 15
295 62 84 41 87 38 -42 64 -94 19 -130 64 -93 116 34 49 217 99 489 134 88 11
161 22 163 24 6 5 -132 61 -212 86 -88 27 -239 50 -330 50 -131 0 -125 34 14
76 47 14 97 29 110 33 54 16 -297 83 -524 100 -156 12 -243 12 -387 0z m-351
-565 c22 -4 21 -6 -19 -82 -47 -90 -74 -117 -128 -132 -71 -19 -147 15 -200
90 l-20 29 22 22 c70 67 218 99 345 73z"/>
<path d="M10208 10860 c-39 -12 -87 -42 -93 -59 -8 -21 39 -61 70 -61 35 0 74
20 81 42 3 10 22 34 41 53 l36 35 -54 -1 c-30 0 -66 -4 -81 -9z"/>
<path d="M14590 11349 c-318 -160 -591 -244 -834 -256 -91 -5 -115 -10 -142
-28 -41 -28 -105 -38 -166 -26 l-48 8 0 -67 0 -67 46 -7 c110 -15 335 1 492
35 266 58 550 188 695 318 42 37 127 146 127 162 0 13 -2 12 -170 -72z"/>
<path d="M12715 11224 c-3 -25 -3 -64 0 -86 6 -36 14 -44 84 -89 187 -121 387
-200 466 -185 69 13 110 86 89 158 -9 30 -14 32 -134 64 -156 41 -344 106
-431 150 l-67 33 -7 -45z"/>
<path d="M14565 11123 c-84 -52 -271 -136 -398 -178 -200 -67 -322 -86 -577
-91 -118 -3 -232 -10 -252 -16 -21 -6 -38 -12 -38 -12 0 -1 11 -37 23 -81 l23
-80 49 -13 c64 -17 285 -10 415 13 359 64 620 192 735 361 33 47 73 128 62
123 -1 0 -20 -12 -42 -26z"/>
<path d="M12726 11033 c42 -175 171 -326 361 -425 136 -70 202 -47 190 66 -3
29 -11 72 -18 95 -10 33 -16 40 -30 36 -58 -19 -257 72 -407 185 -52 38 -96
70 -98 70 -2 0 -1 -12 2 -27z"/>
<path d="M9825 10725 c-116 -118 -106 -265 26 -397 28 -28 52 -48 54 -46 3 2
-5 28 -16 57 -31 82 -28 86 67 87 63 1 92 6 128 24 l47 22 -46 49 c-51 54 -79
109 -95 187 l-11 50 -57 4 c-55 4 -58 3 -97 -37z"/>
<path d="M11555 8071 c-100 -38 -100 -38 -103 -74 l-3 -37 66 25 c36 14 70 25
75 25 6 0 10 -92 10 -245 l0 -245 35 0 35 0 0 295 c0 162 -3 295 -7 295 -5 -1
-53 -18 -108 -39z"/>
<path d="M11989 8087 c-106 -70 -105 -274 1 -345 46 -31 130 -28 179 7 l33 24
-7 -34 c-20 -93 -84 -149 -171 -149 -32 0 -34 -2 -34 -36 l0 -36 53 7 c100 14
160 54 198 132 18 39 23 70 27 163 5 130 -6 184 -44 230 -38 44 -75 60 -142
60 -45 0 -67 -6 -93 -23z m150 -53 c31 -22 61 -90 61 -140 0 -72 -63 -123
-134 -110 -90 17 -117 185 -39 246 31 24 80 26 112 4z"/>
<path d="M12496 8088 c-5 -25 -26 -233 -26 -259 0 -26 48 -30 92 -7 110 58
215 -55 164 -176 -19 -45 -52 -66 -102 -66 -50 0 -90 28 -99 70 -6 26 -11 30
-41 30 -29 0 -34 -4 -34 -22 0 -37 42 -99 80 -119 52 -28 157 -26 200 4 59 40
75 70 78 155 3 66 0 84 -20 121 -35 65 -75 84 -168 78 l-76 -5 7 57 c4 31 8
64 8 74 1 15 14 17 122 17 l120 0 -3 33 -3 32 -147 3 c-146 3 -148 2 -152 -20z"/>
<path d="M13050 8103 c-56 -21 -109 -94 -110 -151 0 -21 4 -23 37 -20 34 3 38
6 44 38 24 116 209 103 209 -15 0 -58 -21 -90 -155 -239 -97 -109 -125 -146
-125 -168 l0 -28 190 0 190 0 0 30 0 30 -140 0 c-77 0 -140 2 -140 5 0 3 45
55 100 116 127 140 155 186 155 259 0 100 -60 151 -177 149 -34 0 -70 -3 -78
-6z"/>
<path d="M5932 14743 c-54 -27 -79 -102 -51 -156 57 -111 215 -148 294 -69 45
45 45 95 0 163 -46 70 -165 101 -243 62z"/>
<path d="M6318 10166 c-133 -48 -208 -140 -208 -258 0 -96 66 -197 152 -232
63 -26 163 -21 233 13 113 53 169 133 169 241 0 107 -58 194 -157 235 -44 18
-139 19 -189 1z"/>
<path d="M6802 9406 c-52 -30 -98 -58 -104 -64 -17 -17 100 -212 140 -235 44
-26 93 -16 140 28 33 30 37 39 37 82 0 40 -10 65 -55 145 -30 54 -57 98 -60
97 -3 0 -47 -24 -98 -53z"/>
<path d="M17392 8647 c-20 -9 -162 -177 -162 -192 0 -12 193 -156 199 -149 5
5 40 51 80 102 78 104 86 132 51 189 -34 56 -110 79 -168 50z"/>
<path d="M7720 8185 c-14 -7 -80 -35 -147 -62 -68 -26 -122 -51 -120 -55 4
-12 138 -158 145 -158 4 0 26 37 49 83 23 45 58 110 78 145 38 64 37 71 -5 47z"/>
<path d="M8415 7524 c-11 -8 -71 -45 -132 -82 -62 -37 -113 -70 -113 -73 0 -9
144 -127 159 -131 8 -2 31 49 61 132 26 74 51 143 55 153 9 21 -3 22 -30 1z"/>
<path d="M9425 6780 l-55 -110 110 -55 c134 -67 158 -69 211 -16 34 34 39 44
39 86 0 70 -25 97 -141 155 -54 28 -101 50 -104 50 -3 0 -30 -49 -60 -110z"/>
<path d="M10166 6540 c-110 -33 -188 -155 -189 -295 -1 -78 15 -118 67 -173
52 -56 101 -76 181 -76 113 0 188 52 241 168 86 188 -32 389 -225 385 -25 0
-59 -5 -75 -9z"/>
<path d="M11556 6208 c-8 -39 -28 -220 -24 -222 13 -10 211 -24 230 -17 91 35
104 182 20 225 -15 7 -63 17 -107 20 -44 4 -88 9 -97 12 -12 4 -19 -2 -22 -18z"/>
<path d="M12300 6140 c0 -3 -27 -72 -59 -155 l-58 -150 109 -9 c60 -5 110 -7
113 -5 2 2 -21 76 -50 164 -30 88 -54 158 -55 155z"/>
</g>
</svg>
