<svg width="242" height="169" viewBox="0 0 242 169" fill="none" xmlns="http://www.w3.org/2000/svg">
<g clip-path="url(#clip0_6_2222)">
<path d="M191.435 74.9388C195.514 74.9388 199.686 74.2138 203.757 72.6777C212.066 69.5481 218.764 63.5544 222.614 55.7878C226.564 47.8202 227.072 38.9624 224.038 30.8441C221.004 22.7257 214.814 16.3875 206.606 12.9923C198.612 9.68318 189.631 9.58269 181.323 12.7123C163.955 19.2515 154.859 38.0149 161.042 54.5532C165.78 67.2081 178.11 74.946 191.427 74.9388H191.435ZM187.277 28.6261C189.381 27.8365 191.556 27.4417 193.703 27.4417C195.85 27.4417 198.104 27.8652 200.144 28.7122C203.951 30.2914 206.806 33.1698 208.166 36.8162C209.532 40.4698 209.275 44.5183 207.436 48.215C205.496 52.1198 202.076 55.1561 197.796 56.764C189.18 60.0085 179.806 56.3333 176.908 48.581C174.009 40.8216 178.654 31.8705 187.277 28.6332V28.6261Z" fill="white"/>
<path d="M82.7181 107.025C74.7247 103.716 65.7437 103.615 57.4354 106.745C40.0674 113.277 30.9719 132.047 37.1548 148.578C40.189 156.697 46.3791 163.035 54.5872 166.43C58.702 168.131 63.0816 168.986 67.4898 168.986C71.6475 168.986 75.8339 168.225 79.8699 166.71C97.2379 160.178 106.333 141.408 100.151 124.877C97.1163 116.758 90.9262 110.42 82.7181 107.025ZM73.916 150.796C69.6366 152.404 65.0638 152.376 61.0492 150.717C57.2421 149.138 54.3868 146.26 53.0272 142.613C50.1289 134.854 54.7733 125.903 63.3964 122.666C65.5004 121.876 67.6758 121.481 69.8155 121.481C71.9552 121.481 74.2166 121.905 76.2561 122.752C80.0632 124.331 82.9185 127.209 84.2781 130.856C87.1764 138.615 82.532 147.566 73.9089 150.804L73.916 150.796Z" fill="white"/>
<path d="M232.382 138.307C231.989 137.833 231.294 137.754 230.815 138.142C225.298 142.506 205.575 156.359 184.035 150.595C178.969 149.239 174.145 146.899 169.68 143.626C169.186 143.267 168.492 143.367 168.127 143.855L159.196 155.556C158.81 156.058 158.917 156.783 159.425 157.163C165.658 161.779 172.464 165.088 179.663 167.019C184.615 168.347 189.653 169.007 194.769 169.007C203.621 169.007 212.695 167.026 221.884 163.064C231.23 159.037 238.286 153.897 241.571 151.277C242.064 150.883 242.136 150.158 241.735 149.67L232.375 138.314L232.382 138.307Z" fill="white"/>
<path d="M203.965 99.7605C204.509 99.4303 205.224 99.6242 205.539 100.177C207.743 104.089 209.339 108.331 210.241 112.688C211.221 117.433 211.4 122.278 210.763 127.102C210.685 127.705 211.107 128.265 211.708 128.358L226.221 130.633C226.85 130.734 227.43 130.289 227.516 129.657C228.446 122.824 228.217 115.961 226.829 109.236C225.584 103.199 223.365 97.3128 220.324 91.8934C220.009 91.3335 220.231 90.6301 220.796 90.3358C225.162 88.0818 229.598 85.9356 234.1 83.897C234.665 83.6386 234.923 82.9711 234.665 82.404L228.675 68.9523C228.418 68.3781 227.745 68.1197 227.18 68.3781C200.029 80.6597 175.169 96.6668 153.271 115.969C148.004 120.606 143.281 125.113 139.109 129.083C137.248 130.856 135.151 132.859 133.097 134.746C132.289 135.493 131.001 134.761 131.223 133.684C131.251 133.533 131.287 133.383 131.316 133.232C132.826 125.953 135.359 116.019 138.572 103.436C139.373 100.299 140.218 96.9898 141.098 93.5013C150.186 57.6254 155.117 36.4788 157.085 24.9509C158.781 15.0093 159.497 7.61591 153.271 2.96453C144.211 -3.79719 130.879 2.84251 126.492 5.02463C118.12 9.19508 107.872 16.0286 96.0214 25.3385C90.5398 29.6453 84.8506 34.3757 79.0756 39.4147C78.2455 40.1397 76.9932 39.3788 77.2365 38.3021C78.1596 34.1962 78.131 29.3941 74.6245 25.6472C72.4919 23.3645 68.4559 20.9527 61.3713 22.4386C57.8146 23.1851 53.4494 24.8863 48.025 27.6283C37.3838 33.0119 22.685 42.3792 3.10576 56.2472C2.59768 56.6061 2.47602 57.3167 2.83383 57.8264L11.321 69.8496C11.6788 70.3592 12.3873 70.4813 12.8954 70.1224C28.4744 59.0825 41.1408 50.8134 50.5511 45.5375C51.8822 44.791 53.0987 44.1306 54.2151 43.542C55.2169 43.0181 56.2832 44.1306 55.7179 45.114C53.5639 48.8251 50.4939 53.6846 46.1286 59.9941C37.3981 72.606 26.5064 86.675 18.5559 96.9539C14.7846 101.828 11.5286 106.034 9.27438 109.085C7.97911 110.836 7.08459 112.114 6.45485 113.097C5.95392 113.887 5.58895 114.54 5.30271 115.157C3.28467 119.579 5.02362 123.671 7.63562 125.774C10.0401 127.705 14.3338 128.853 18.5058 125.731C19.064 125.314 19.658 124.798 20.3736 124.108C21.3182 123.197 22.5562 121.898 24.1664 120.132C27.0002 117.024 30.5711 112.939 34.3424 108.611C37.1119 105.438 39.9815 102.158 42.4504 99.3801C52.104 88.5628 63.053 77.3507 74.1808 66.8205C74.6173 66.4041 75.3043 66.4041 75.7337 66.8205C76.6282 67.689 77.5084 68.6509 78.3457 69.7348C79.92 71.7661 81.201 74.0129 82.1671 76.4247C82.3961 76.9918 83.0258 77.2717 83.5911 77.0707L97.424 72.0963C98.0251 71.881 98.3257 71.2134 98.0967 70.6177C96.5223 66.5405 94.3826 62.7433 91.7277 59.3194C90.6829 57.9699 89.5522 56.6779 88.35 55.4576C87.8991 54.9982 87.9278 54.2445 88.4144 53.8138C93.3164 49.4927 98.1611 45.394 102.848 41.6112C122.864 25.4534 133.877 19.8688 139.345 17.9595C140.146 17.6795 140.962 18.3471 140.84 19.1869C140.468 21.7423 139.824 25.4247 138.722 30.7292C136.203 42.8171 131.745 61.4298 124.682 89.3165C123.802 92.7978 122.957 96.0997 122.163 99.2294C118.062 115.33 115.093 126.965 113.719 135.134C112.91 139.95 112.652 143.539 112.917 146.432C113.504 152.785 116.681 155.843 119.243 157.293C121.168 158.376 123.107 158.8 124.961 158.8C130.278 158.8 134.929 155.319 136.783 153.94C140.783 150.947 145.42 146.533 150.788 141.422C154.845 137.553 159.446 133.174 164.463 128.753C176.693 117.978 189.903 108.295 203.972 99.7749L203.965 99.7605Z" fill="white"/>
<path d="M26.4206 31.1599C31.5802 27.7432 36.89 24.4126 42.2142 21.2542C42.7509 20.9384 42.9298 20.2421 42.615 19.7038L35.1797 6.99861C34.8648 6.46025 34.1707 6.27362 33.6268 6.59663C28.045 9.90571 22.4847 13.3942 17.0746 16.9833C11.457 20.7087 5.87522 24.6207 0.458 28.6332C-0.042932 29.0065 -0.150274 29.7171 0.221846 30.2196L8.98099 42.0418C9.35311 42.5443 10.0544 42.6448 10.5553 42.2787C15.7221 38.4528 21.0534 34.7131 26.4134 31.1599H26.4206Z" fill="white"/>
</g>
<defs>
<clipPath id="clip0_6_2222">
<rect width="242" height="169" fill="white"/>
</clipPath>
</defs>
</svg>
